<?xml version="1.0" encoding="UTF-8"?>
<svg version="1.1" xmlns="http://www.w3.org/2000/svg" width="406" height="92">
<path d="M0 0 C4.55542785 0.90251638 6.95457484 4.07309555 10.09887695 7.34179688 C11.12038094 8.37391296 11.12038094 8.37391296 12.16252136 9.42687988 C14.33430716 11.62664759 16.48806641 13.84315992 18.6418457 16.06054688 C20.111394 17.55517279 21.5820841 19.04867698 23.05395508 20.54101562 C26.65912881 24.20130958 30.24823093 27.87671723 33.8293457 31.56054688 C32.0772332 35.30833908 29.78717741 37.73100666 26.8293457 40.56054688 C25.32662091 42.05781713 23.82685194 43.55805725 22.3293457 45.06054688 C19.90366286 47.49025241 17.47171223 49.91023293 15.0168457 52.31054688 C12.7909551 54.51347886 12.7909551 54.51347886 10.9543457 56.99804688 C9.16105276 59.16054719 7.38947868 61.03759458 5.3293457 62.93554688 C4.7621582 63.45890625 4.1949707 63.98226562 3.6105957 64.52148438 C1.8293457 65.56054688 1.8293457 65.56054688 -0.08049011 65.30073547 C-2.44780755 64.46239876 -3.61133196 63.5113076 -5.39453125 61.7565918 C-5.99807938 61.16895554 -6.6016275 60.58131927 -7.22346497 59.97587585 C-7.86217026 59.33737198 -8.50087555 58.6988681 -9.15893555 58.04101562 C-10.15282539 57.05854607 -10.15282539 57.05854607 -11.16679382 56.05622864 C-12.56330112 54.67051847 -13.9558594 53.28081878 -15.34472656 51.88745117 C-17.47877553 49.75242764 -19.6332595 47.63962238 -21.78979492 45.52734375 C-23.14330704 44.17903671 -24.49556482 42.82946907 -25.84643555 41.47851562 C-26.49526199 40.84608444 -27.14408844 40.21365326 -27.81257629 39.5620575 C-28.40036362 38.96496475 -28.98815094 38.36787201 -29.59375 37.75268555 C-30.11685257 37.23163742 -30.63995514 36.71058929 -31.1789093 36.17375183 C-32.1706543 34.56054688 -32.1706543 34.56054688 -31.94859314 32.49920654 C-30.8228464 29.69379348 -29.02579526 28.08050147 -26.8737793 25.97070312 C-25.9972168 25.10380859 -25.1206543 24.23691406 -24.2175293 23.34375 C-23.29456055 22.44591797 -22.3715918 21.54808594 -21.4206543 20.62304688 C-20.5131543 19.72908203 -19.6056543 18.83511719 -18.6706543 17.9140625 C-16.96994859 16.23946412 -15.26617655 14.56797001 -13.55834961 12.90063477 C-12.77041016 12.12840576 -11.9824707 11.35617676 -11.1706543 10.56054688 C-10.28732422 9.6961499 -9.40399414 8.83175293 -8.49389648 7.94116211 C-6.09021352 5.6007077 -6.09021352 5.6007077 -4.1706543 2.74804688 C-2.1706543 0.56054688 -2.1706543 0.56054688 0 0 Z M-20.1706543 26.56054688 C-19.1706543 28.56054688 -19.1706543 28.56054688 -19.1706543 28.56054688 Z M-3.1706543 26.56054688 C-2.1706543 28.56054688 -2.1706543 28.56054688 -2.1706543 28.56054688 Z M-12.1706543 27.56054688 C-11.1706543 29.56054688 -11.1706543 29.56054688 -11.1706543 29.56054688 Z M12.8293457 36.56054688 C12.4993457 37.22054687 12.1693457 37.88054688 11.8293457 38.56054688 C12.8193457 38.23054688 13.8093457 37.90054688 14.8293457 37.56054688 C14.1693457 37.23054688 13.5093457 36.90054688 12.8293457 36.56054688 Z " fill="#7C64B6" transform="translate(44.170654296875,18.439453125)"/>
<path d="M0 0 C4.45146251 2.18526342 7.18885145 4.9394521 10 9 C10.33 9.99 10.66 10.98 11 12 C11.32871094 11.20335937 11.32871094 11.20335937 11.6640625 10.390625 C13.91392625 5.37873339 15.75002194 2.2499906 21 0 C26.52153015 -0.71922238 31.24666892 -0.91038344 36.25 1.6875 C38 4 38 4 38.3125 6.75 C38.209375 7.4925 38.10625 8.235 38 9 C35.625 10.0625 35.625 10.0625 33 11 C32.34 10.67 31.68 10.34 31 10 C27.5 9.75 27.5 9.75 24 10 C21.63589512 11.93731528 21.63589512 11.93731528 21.6875 15.4375 C21.69886343 18.85550188 21.69886343 18.85550188 23.17578125 20.75390625 C25.79129924 22.54052346 27.42375564 21.99616845 30.5 21.5 C33.40625 21.03125 33.40625 21.03125 36 21 C37.84375 22.46875 37.84375 22.46875 39 24 C38.07349738 27.42805969 37.33885367 28.76602961 34.375 30.8125 C29.45899545 32.5422053 25.44941435 32.56963124 20.3125 31.375 C16.19675895 28.92780262 13.49214397 25.74143251 12.1875 21.125 C12.125625 20.42375 12.06375 19.7225 12 19 C11.34 19 10.68 19 10 19 C9.9071875 19.74765625 9.814375 20.4953125 9.71875 21.265625 C8.47456879 25.99892307 5.03176085 28.4572031 1 31 C-3.61476256 32.56191964 -7.09504768 32.25640316 -11.75 30.9375 C-16.35695296 28.19104727 -19.26477648 25.20567055 -21 20 C-21.77245664 13.46577665 -20.94066541 9.28878778 -17 4 C-11.96844758 -0.78611084 -6.6108623 -0.97537313 0 0 Z M-9 9 C-11.54440716 12.81661075 -11.57622479 15.5296109 -11 20 C-10.12129086 22.212981 -10.12129086 22.212981 -8 23 C-4.42243314 23.00082535 -4.42243314 23.00082535 -1 22 C1.46324069 18.30513897 1.38991688 16.36706908 1 12 C0.08333333 9.91666667 0.08333333 9.91666667 -2 9 C-5.54213985 8.49992206 -5.54213985 8.49992206 -9 9 Z " fill="#0B0916" transform="translate(138,38)"/>
<path d="M0 0 C1.73828125 1.4453125 1.73828125 1.4453125 3 3 C2.9375 5.5625 2.9375 5.5625 2 8 C-0.0625 9.3125 -0.0625 9.3125 -2 10 C-2.99 9.34 -3.98 8.68 -5 8 C-7.73872955 7.54227937 -7.73872955 7.54227937 -10.6875 7.375 C-11.68136719 7.30023438 -12.67523438 7.22546875 -13.69921875 7.1484375 C-14.45847656 7.09945312 -15.21773437 7.05046875 -16 7 C-15.67 8.32 -15.34 9.64 -15 11 C-14.27554688 11.17015625 -13.55109375 11.3403125 -12.8046875 11.515625 C-5.73287308 13.28829315 -0.20720723 14.68918915 4 21 C4.52943899 24.9707924 4.86675378 27.50999517 2.83203125 31.0078125 C0.01954547 34.46377189 -2.53126161 37.06468266 -7 38 C-13.96492525 38.71097536 -19.14449534 37.7361646 -24.9375 33.625 C-26.44808556 31.31469267 -26.34595842 29.69847564 -26 27 C-25.34 26.34 -24.68 25.68 -24 25 C-20.78769445 25.29202778 -18.04023965 25.98574846 -15 27.0625 C-11.83580317 28.05131151 -9.29357527 28.15683692 -6 28 C-6.01021628 26.02754666 -6.01021628 26.02754666 -7 24 C-9.84027898 22.80814583 -9.84027898 22.80814583 -13.25 22.0625 C-22.19170616 19.51332938 -22.19170616 19.51332938 -25 15 C-26.42706599 10.3296022 -26.49622452 7.11650517 -24.5 2.625 C-17.57438499 -4.64689576 -8.4370596 -4.45696844 0 0 Z " fill="#0B0915" transform="translate(112,32)"/>
<path d="M0 0 C0.33 -0.33 0.66 -0.66 1 -1 C3.9375 -1.25 3.9375 -1.25 7 -1 C9.27038301 2.40557452 9.25671558 3.65719174 9.265625 7.65625 C9.26949219 9.31333984 9.26949219 9.31333984 9.2734375 11.00390625 C9.26570313 12.15761719 9.25796875 13.31132813 9.25 14.5 C9.25773437 15.65371094 9.26546875 16.80742188 9.2734375 17.99609375 C9.27085937 19.10082031 9.26828125 20.20554687 9.265625 21.34375 C9.26336914 22.35630859 9.26111328 23.36886719 9.25878906 24.41210938 C9 27 9 27 7 30 C5.1171875 30.2578125 5.1171875 30.2578125 2.875 30.125 C-0.28147548 30.00320673 -3.13485428 30.10383494 -6.25 30.625 C-10.19507203 31.0195072 -11.68912201 31.09108084 -15 29 C-19.22493507 24.71323662 -22.13342987 21.46685771 -22.3125 15.3125 C-22.24321325 9.97742049 -21.22925643 7.24902161 -18 3 C-12.59677171 -1.9006024 -6.73783395 -2.24594465 0 0 Z M-11.9375 9.5 C-13.58319051 13.37221296 -12.92498994 15.90361598 -12 20 C-9.18467943 22.28992684 -9.18467943 22.28992684 -6 21.9375 C-2.8948052 21.23639551 -2.8948052 21.23639551 -1 18.875 C0.36197337 14.95932656 -0.47358583 12.77969224 -2 9 C-5.49287935 7.25356032 -8.79545699 7.06745057 -11.9375 9.5 Z " fill="#0A0815" transform="translate(211,39)"/>
<path d="M0 0 C2.99575927 0.32200526 4.56253819 0.53720034 6.66918945 2.76586914 C7.14573975 3.51473389 7.62229004 4.26359863 8.11328125 5.03515625 C8.9012207 6.24848633 8.9012207 6.24848633 9.70507812 7.48632812 C10.50075195 8.7615332 10.50075195 8.7615332 11.3125 10.0625 C12.13717773 11.34350586 12.13717773 11.34350586 12.97851562 12.65039062 C14.33293615 14.75857561 15.6725019 16.87479824 17 19 C20.82516038 15.53233124 23.45754712 11.54420806 26.25 7.25 C26.70890625 6.55261719 27.1678125 5.85523438 27.640625 5.13671875 C28.76465406 3.42725789 29.88291224 1.71400488 31 0 C33.475 0.495 33.475 0.495 36 1 C36 13.21 36 25.42 36 38 C33.525 38.495 33.525 38.495 31 39 C31 30.09 31 21.18 31 12 C27.81028949 15.18971051 26.03099628 17.34354055 23.875 21.125 C22.36376297 23.76379212 21.15343684 25.84656316 19 28 C17.02246094 27.82250977 17.02246094 27.82250977 15 27 C13.24740049 24.65256125 11.74860326 22.43303655 10.25 19.9375 C8.8475 17.648125 7.445 15.35875 6 13 C5.67 21.25 5.34 29.5 5 38 C2.525 38.495 2.525 38.495 0 39 C-0.89364913 35.93301749 -1.12865903 33.18986404 -1.1328125 30 C-1.13474609 29.03521729 -1.13667969 28.07043457 -1.13867188 27.07641602 C-1.13416016 26.06119873 -1.12964844 25.04598145 -1.125 24 C-1.12306641 22.96866943 -1.12113281 21.93733887 -1.11914062 20.87475586 C-1.07938594 13.86964923 -0.83827018 6.96063634 0 0 Z " fill="#1D1C20" transform="translate(236,30)"/>
<path d="M0 0 C0.54269531 0.433125 1.08539062 0.86625 1.64453125 1.3125 C2.35996094 1.869375 3.07539063 2.42625 3.8125 3 C4.52019531 3.556875 5.22789063 4.11375 5.95703125 4.6875 C8.01595999 6.27025683 8.01595999 6.27025683 11 6 C11 5.01 11 4.02 11 3 C12.32 3 13.64 3 15 3 C15 3.66 15 4.32 15 5 C19.49857564 7.48197277 23.04079763 7.23980059 28 6 C29.89290509 4.06295292 29.89290509 4.06295292 31 2 C31.99 2.66 32.98 3.32 34 4 C33.67 4.33 33.34 4.66 33 5 C33.66 5.33 34.32 5.66 35 6 C33.68 6.33 32.36 6.66 31 7 C31 7.99 31 8.98 31 10 C30.01 9.67 29.02 9.34 28 9 C27.67 9.99 27.34 10.98 27 12 C26.01 12.66 25.02 13.32 24 14 C26.12364481 14.22609337 26.12364481 14.22609337 27.625 12.5 C28.305625 11.7575 28.305625 11.7575 29 11 C29.66 11.33 30.32 11.66 31 12 C30.67 12.66 30.34 13.32 30 14 C29.34 14 28.68 14 28 14 C28 14.804375 28 15.60875 28 16.4375 C28 17.625 28 18.8125 28 20 C30.02965198 19.5748108 30.02965198 19.5748108 32 18 C32.98494554 15.34822355 33.45912382 12.79452693 34 10 C37.465 9.505 37.465 9.505 41 9 C40.505 9.78375 40.01 10.5675 39.5 11.375 C37.83462035 13.78552327 37.83462035 13.78552327 38 16 C39.32 15.67 40.64 15.34 42 15 C40.86451432 18.40645705 39.36200767 19.48911829 36.6171875 21.67578125 C33.4330694 24.28306636 30.63174228 27.2725392 27.9375 30.375 C26 32 26 32 24.19042969 31.89477539 C21.10487028 30.6343457 19.34663696 28.68224618 17.015625 26.30859375 C16.55516785 25.84389175 16.09471069 25.37918976 15.62030029 24.90040588 C14.15632189 23.41968181 12.70313959 21.92885481 11.25 20.4375 C10.25720551 19.42965336 9.2637233 18.42248367 8.26953125 17.41601562 C5.83833527 14.95180539 3.41671132 12.47842671 1 10 C1.99 9.67 2.98 9.34 4 9 C4.66 9.33 5.32 9.66 6 10 C4.74381926 6.23145777 3.33985294 5.92041544 0 4 C-0.33 3.34 -0.66 2.68 -1 2 C-0.67 1.34 -0.34 0.68 0 0 Z " fill="#496F9E" transform="translate(20,52)"/>
<path d="M0 0 C0.94875 0.165 1.8975 0.33 2.875 0.5 C6.02003644 1.25006513 6.02003644 1.25006513 9 0 C15.12093081 -0.50171564 18.1167095 -0.08833623 23 4 C26.27239337 7.04671107 26.72624246 10.3849821 27.05859375 14.69140625 C26.9249471 19.95708425 24.79845504 23.16525155 21.25 26.875 C16.58437865 29.92559858 13.02779457 30.25808295 7.5625 29.5625 C6.716875 29.376875 5.87125 29.19125 5 29 C4.67 30.98 4.34 32.96 4 35 C2.0625 35.5625 2.0625 35.5625 0 36 C-1.7329298 34.2670702 -1.12820046 32.03785664 -1.13894653 29.72851562 C-1.1369223 28.99310547 -1.13489807 28.25769531 -1.1328125 27.5 C-1.13376923 26.74912109 -1.13472595 25.99824219 -1.13571167 25.22460938 C-1.13639338 23.63411373 -1.13453972 22.04361533 -1.13037109 20.453125 C-1.12502267 18.01035345 -1.13031634 15.56776579 -1.13671875 13.125 C-1.13605797 11.58333293 -1.1347768 10.04166597 -1.1328125 8.5 C-1.13483673 7.76458984 -1.13686096 7.02917969 -1.13894653 6.27148438 C-1.11495161 1.11495161 -1.11495161 1.11495161 0 0 Z M7.125 6.4375 C4.30004718 9.84406076 3.67990679 12.6113536 4 17 C5.50591268 20.81405033 5.50591268 20.81405033 8 24 C11.05442193 24.43369074 13.9477939 24.4535621 17 24 C19.85838005 21.83878582 20.77465717 20.33308076 21.37109375 16.8046875 C21.5752144 13.05629002 21.45034493 10.72055189 19.4375 7.5 C15.13641913 4.85318101 11.71419791 4.14290104 7.125 6.4375 Z " fill="#17161B" transform="translate(330,40)"/>
<path d="M0 0 C1.65 0.33 3.3 0.66 5 1 C5 5.29 5 9.58 5 14 C6.32 13.34 7.64 12.68 9 12 C13.24419266 11.52842304 15.48247222 11.73635377 19.3125 13.6875 C22.61220906 16.52678454 23.80722078 18.67423868 24.1706543 23.05883789 C24.23263164 25.43851503 24.22359176 27.80734347 24.1875 30.1875 C24.18685547 31.00669922 24.18621094 31.82589844 24.18554688 32.66992188 C24.14074248 38.71851504 24.14074248 38.71851504 23 41 C21.35 40.67 19.7 40.34 18 40 C17.67 32.74 17.34 25.48 17 18 C10.44464865 17.71704177 10.44464865 17.71704177 6 19 C5.67 25.93 5.34 32.86 5 40 C2.525 40.495 2.525 40.495 0 41 C-1.6039815 37.792037 -1.14180778 34.30399722 -1.1328125 30.78125 C-1.13376923 29.96756958 -1.13472595 29.15388916 -1.13571167 28.31555176 C-1.13639263 26.59399335 -1.13454417 24.87243239 -1.13037109 23.15087891 C-1.12502165 20.51068371 -1.13031889 17.87065864 -1.13671875 15.23046875 C-1.13605795 13.55989546 -1.13477676 11.88932227 -1.1328125 10.21875 C-1.13483673 9.42601685 -1.13686096 8.63328369 -1.13894653 7.81652832 C-1.11496014 2.22992027 -1.11496014 2.22992027 0 0 Z " fill="#201F25" transform="translate(361,28)"/>
<path d="M0 0 C0.66 0.66 1.32 1.32 2 2 C1.8125 4.0625 1.8125 4.0625 1 6 C0.01 6.33 -0.98 6.66 -2 7 C-1.67 7.598125 -1.34 8.19625 -1 8.8125 C0 11 0 11 0 14 C-1.32 14.33 -2.64 14.66 -4 15 C-4 15.763125 -4 16.52625 -4 17.3125 C-4 19.20833333 -4 21.10416667 -4 23 C-6 21.8125 -6 21.8125 -8 20 C-8.25 17.3125 -8.25 17.3125 -8 15 C-8.66 14.67 -9.32 14.34 -10 14 C-10.33417929 17.3324787 -10.33417929 17.3324787 -10 21 C-8.14567913 23.27144074 -8.14567913 23.27144074 -6 25 C-5.67 25.99 -5.34 26.98 -5 28 C-4.01 28 -3.02 28 -2 28 C-0.31763529 28.62599617 1.3523962 29.28752268 3 30 C0.35261084 31.4606285 -0.89448334 32 -4 32 C-6.0360882 30.72245446 -8.04109119 29.39300182 -10 28 C-10.66 28.99 -11.32 29.98 -12 31 C-16.83256305 30.58578031 -18.82679218 28.53586014 -22 25 C-22 25.99 -22 26.98 -22 28 C-21.21625 28.45375 -20.4325 28.9075 -19.625 29.375 C-16.55039988 31.27832388 -16.0093586 32.60488472 -15 36 C-15.556875 35.71125 -16.11375 35.4225 -16.6875 35.125 C-18.95073881 33.94623965 -18.95073881 33.94623965 -21.3125 33.3125 C-25.21297008 31.40761927 -28.54884148 28.60822713 -31 25 C-30.58553166 21.72189418 -29.43952739 20.06316782 -27.12890625 17.765625 C-26.55462891 17.19199219 -25.98035156 16.61835937 -25.38867188 16.02734375 C-24.4847168 15.14755859 -24.4847168 15.14755859 -23.5625 14.25 C-22.96373047 13.64800781 -22.36496094 13.04601562 -21.74804688 12.42578125 C-17.26706881 8 -17.26706881 8 -15 8 C-14.67 8.99 -14.34 9.98 -14 11 C-14.66 11 -15.32 11 -16 11 C-16.28875 11.639375 -16.5775 12.27875 -16.875 12.9375 C-18 15 -18 15 -20 16 C-20 17.32 -20 18.64 -20 20 C-19.34 20 -18.68 20 -18 20 C-17.7525 19.443125 -17.505 18.88625 -17.25 18.3125 C-14.41192881 13.06206829 -10.38375236 9.47436302 -5.90625 5.6484375 C-3.83599452 3.85817559 -1.89524622 1.97421482 0 0 Z " fill="#423F9B" transform="translate(43,28)"/>
<path d="M0 0 C3.18915068 0.33732948 4.82246394 1.45797907 7.015625 3.72265625 C7.80839844 4.52993164 7.80839844 4.52993164 8.6171875 5.35351562 C9.15601562 5.91748047 9.69484375 6.48144531 10.25 7.0625 C11.08144531 7.91424805 11.08144531 7.91424805 11.9296875 8.78320312 C13.29334214 10.18212469 14.64760417 11.59019114 16 13 C14.22055838 16.81537933 12.06193097 19.07119646 9 22 C8.36320312 22.680625 7.72640625 23.36125 7.0703125 24.0625 C6.38710937 24.784375 5.70390625 25.50625 5 26.25 C4.360625 26.93578125 3.72125 27.6215625 3.0625 28.328125 C0.69425738 30.24783682 -1.00566464 30.64650208 -4 31 C-4.33 30.01 -4.66 29.02 -5 28 C-4.01 27.01 -3.02 26.02 -2 25 C-3.98 25 -5.96 25 -8 25 C-8.144375 25.94875 -8.28875 26.8975 -8.4375 27.875 C-9 31 -9 31 -10 33 C-10.66 33 -11.32 33 -12 33 C-12.33 33.99 -12.66 34.98 -13 36 C-15.0625 36.6875 -15.0625 36.6875 -17 37 C-16.690625 36.236875 -16.38125 35.47375 -16.0625 34.6875 C-15.32106407 32.81210323 -14.63771783 30.91315348 -14 29 C-13.34 29 -12.68 29 -12 29 C-12.33 28.34 -12.66 27.68 -13 27 C-14.65 28.32 -16.3 29.64 -18 31 C-18.33 30.01 -18.66 29.02 -19 28 C-17.68 27.67 -16.36 27.34 -15 27 C-14.67 25.68 -14.34 24.36 -14 23 C-12 24 -12 24 -11 25 C-11 24.01 -11 23.02 -11 22 C-10.67 21.67 -10.34 21.34 -10 21 C-10.33 20.01 -10.66 19.02 -11 18 C-12.65 18 -14.3 18 -16 18 C-16.33 16.68 -16.66 15.36 -17 14 C-18.32 13.67 -19.64 13.34 -21 13 C-20.67 11.35 -20.34 9.7 -20 8 C-15.68073554 9.30886802 -12.94630919 11.59011363 -9.6484375 14.53515625 C-7.843743 16.13885397 -5.95880909 17.58965746 -4 19 C-4.66 18.2575 -5.32 17.515 -6 16.75 C-8 14 -8 14 -8 10 C-5.03824877 10.61277612 -3.61941217 11.25372522 -1 13 C-1 14.32 -1 15.64 -1 17 C-0.34 17 0.32 17 1 17 C1.33 18.32 1.66 19.64 2 21 C2.99 20.01 3.98 19.02 5 18 C4.67 17.01 4.34 16.02 4 15 C6.16874252 15.50603992 7.99967627 15.99983813 10 17 C8.328164 13.74920778 6.84070651 11.86725543 4 9.5 C1.15929349 7.13274457 -0.328164 5.25079222 -2 2 C-1.34 1.34 -0.68 0.68 0 0 Z " fill="#4C7AA0" transform="translate(62,37)"/>
<path d="M0 0 C3.68009849 2.17900569 6.26962516 4.76153831 8.4375 8.4375 C9.44719797 13.03723519 9.47913915 16.66905792 7.875 21.125 C5.17427724 25.26610823 2.6022962 28.23983104 -2.1796875 29.63671875 C-7.30203276 30.4387021 -10.59305583 29.97212514 -15 27 C-18.38714684 24.07057571 -19.80318477 22.05526729 -20.23828125 17.51171875 C-20.3965528 11.48906976 -20.28810855 7.63579303 -16 3 C-10.40699027 -0.86184005 -6.61112525 -1.76080624 0 0 Z M-12.4375 6.875 C-15.25704953 10.70958736 -15.39779343 13.22647884 -15 18 C-13.60845604 21.46255794 -13.60845604 21.46255794 -11 24 C-7.03417805 25.22579951 -4.99808436 25.44359305 -1.1875 23.75 C1.30066719 21.75946625 2.80161257 20.11514621 3.37109375 16.9140625 C3.49362431 12.69036188 3.36745788 10.56266987 1 6.9375 C-3.57559037 3.98243122 -7.83763415 3.33664165 -12.4375 6.875 Z " fill="#171719" transform="translate(297,40)"/>
<path d="M0 0 C3.5625 0.25 3.5625 0.25 7 1 C8.51307117 4.02614234 8.18354647 7.17139914 8.203125 10.4921875 C8.20882507 11.23453644 8.21452515 11.97688538 8.22039795 12.74172974 C8.22984905 14.31364516 8.23638237 15.88558041 8.24023438 17.45751953 C8.24993436 19.85875152 8.28095289 22.25912543 8.3125 24.66015625 C8.31903077 26.18749492 8.32428095 27.71483971 8.328125 29.2421875 C8.3404718 29.95897675 8.3528186 30.67576599 8.36553955 31.41427612 C8.35160257 34.54406269 8.16877631 36.69510009 6.63964844 39.45751953 C5 41 5 41 2.4375 41.4375 C1.633125 41.293125 0.82875 41.14875 0 41 C-2.50822042 37.23766937 -2.28865784 34.25861633 -2.265625 29.90234375 C-2.26753845 29.11227432 -2.2694519 28.3222049 -2.27142334 27.50819397 C-2.27278333 25.83968792 -2.26909988 24.17117122 -2.26074219 22.50268555 C-2.25002558 19.9436072 -2.26065082 17.38522858 -2.2734375 14.82617188 C-2.27211615 13.20572761 -2.26955427 11.58528379 -2.265625 9.96484375 C-2.26967346 9.19712143 -2.27372192 8.42939911 -2.27789307 7.63841248 C-2.22993107 2.22993107 -2.22993107 2.22993107 0 0 Z " fill="#0A0815" transform="translate(226,28)"/>
<path d="M0 0 C3.0625 0.125 3.0625 0.125 5.0625 1.125 C5.1875 4 5.1875 4 5.0625 7.125 C4.4025 7.785 3.7425 8.445 3.0625 9.125 C4.0525 10.61 4.0525 10.61 5.0625 12.125 C5.32128906 14.82055664 5.32128906 14.82055664 5.328125 18.03515625 C5.33070313 19.18951172 5.33328125 20.34386719 5.3359375 21.53320312 C5.32820312 22.73912109 5.32046875 23.94503906 5.3125 25.1875 C5.32023438 26.39728516 5.32796875 27.60707031 5.3359375 28.85351562 C5.33335937 30.00658203 5.33078125 31.15964844 5.328125 32.34765625 C5.32586914 33.40734619 5.32361328 34.46703613 5.32128906 35.55883789 C5.0625 38.125 5.0625 38.125 3.0625 40.125 C0.5625 40.375 0.5625 40.375 -1.9375 40.125 C-4.65984602 37.40265398 -4.19538057 35.89737127 -4.203125 32.09375 C-4.20570313 30.89105469 -4.20828125 29.68835938 -4.2109375 28.44921875 C-4.20320312 27.18722656 -4.19546875 25.92523438 -4.1875 24.625 C-4.19523438 23.36300781 -4.20296875 22.10101563 -4.2109375 20.80078125 C-4.20835937 19.59808594 -4.20578125 18.39539063 -4.203125 17.15625 C-4.20086914 16.04830078 -4.19861328 14.94035156 -4.19628906 13.79882812 C-3.9375 11.125 -3.9375 11.125 -1.9375 9.125 C-2.5975 8.465 -3.2575 7.805 -3.9375 7.125 C-4.125 4.0625 -4.125 4.0625 -3.9375 1.125 C-2.9375 0.125 -2.9375 0.125 0 0 Z " fill="#16131E" transform="translate(181.9375,28.875)"/>
<path d="M0 0 C2.94246185 -0.26648711 4.4903637 -0.36087241 6.94458008 1.37695312 C7.54681396 2.00537109 8.14904785 2.63378906 8.76953125 3.28125 C9.43017578 3.95800781 10.09082031 4.63476562 10.77148438 5.33203125 C11.44501953 6.04746094 12.11855469 6.76289063 12.8125 7.5 C13.50537109 8.21542969 14.19824219 8.93085938 14.91210938 9.66796875 C16.61985699 11.43460421 18.31486688 13.21182487 20 15 C19.67 15.99 19.34 16.98 19 18 C16.18135574 16.65659271 13.6454413 15.12423946 11.0625 13.375 C7.88147039 11.35501658 5.84725239 10.43422759 2 11 C1.34 11 0.68 11 0 11 C-1.54542246 12.45315843 -3.03844298 13.96251794 -4.5 15.5 C-5.96155702 17.03748206 -7.45457754 18.54684157 -9 20 C-9.66 20 -10.32 20 -11 20 C-11.2475 20.5775 -11.495 21.155 -11.75 21.75 C-13.53195718 24.95752293 -15.7014109 27.35070545 -19 29 C-19.33 27.02 -19.66 25.04 -20 23 C-19.01 23.33 -18.02 23.66 -17 24 C-16.67 23.01 -16.34 22.02 -16 21 C-15.34 20.34 -14.68 19.68 -14 19 C-14.33 18.01 -14.66 17.02 -15 16 C-11.75063515 10.98699962 -7.01083204 6.9414302 -2.3828125 3.2265625 C-0.85896891 2.02824461 -0.85896891 2.02824461 0 0 Z " fill="#7C36B0" transform="translate(42,19)"/>
<path d="M0 0 C2 0 2 0 4.125 1.875 C6 4 6 4 6 6 C6.66 6 7.32 6 8 6 C9.625 7.5 9.625 7.5 11 9 C14.81684226 7.44499019 17.19195732 4.96404505 20 2 C20.66 2.33 21.32 2.66 22 3 C21.67 3.66 21.34 4.32 21 5 C20.34 5 19.68 5 19 5 C19 5.804375 19 6.60875 19 7.4375 C19 8.625 19 9.8125 19 11 C21.02965198 10.5748108 21.02965198 10.5748108 23 9 C23.98494554 6.34822355 24.45912382 3.79452693 25 1 C28.465 0.505 28.465 0.505 32 0 C31.505 0.78375 31.01 1.5675 30.5 2.375 C28.83462035 4.78552327 28.83462035 4.78552327 29 7 C30.32 6.67 31.64 6.34 33 6 C31.86451432 9.40645705 30.36200767 10.48911829 27.6171875 12.67578125 C24.4330694 15.28306636 21.63174228 18.2725392 18.9375 21.375 C17 23 17 23 15.20703125 22.91796875 C12.00509005 21.5861879 10.14199569 19.42391657 7.75 16.9375 C6.85796875 16.01839844 5.9659375 15.09929687 5.046875 14.15234375 C4.37140625 13.44207031 3.6959375 12.73179688 3 12 C3.99 11.67 4.98 11.34 6 11 C7.82421875 12.21484375 7.82421875 12.21484375 9.6875 13.9375 C10.62142578 14.78634766 10.62142578 14.78634766 11.57421875 15.65234375 C12.04472656 16.09707031 12.51523437 16.54179688 13 17 C12.67 16.01 12.34 15.02 12 14 C12 13.67 12 13.34 12 13 C11.175 12.360625 10.35 11.72125 9.5 11.0625 C8.675 10.381875 7.85 9.70125 7 9 C7 8.34 7 7.68 7 7 C6.01 6.67 5.02 6.34 4 6 C4 5.34 4 4.68 4 4 C2.68 3.67 1.36 3.34 0 3 C0 2.01 0 1.02 0 0 Z " fill="#6FA8BA" transform="translate(29,61)"/>
<path d="M0 0 C3.25 1.6875 3.25 1.6875 5 4 C5.3125 6.75 5.3125 6.75 5 9 C2.625 10.0625 2.625 10.0625 0 11 C-0.66 10.67 -1.32 10.34 -2 10 C-4.0092226 10 -6.01901908 10.00243795 -8.02734375 10.0625 C-10 10 -10 10 -13 9 C-13.16802051 10.45817797 -13.33437143 11.9165484 -13.5 13.375 C-13.5928125 14.18710937 -13.685625 14.99921875 -13.78125 15.8359375 C-14.03352351 17.96912825 -14.03352351 17.96912825 -14 20 C-14.99 20.33 -15.98 20.66 -17 21 C-19 20 -19 20 -20 17 C-20.61193379 11.84227236 -20.93981991 8.21922582 -17.6875 4 C-11.66601145 -0.48110776 -7.41393678 -0.80933811 0 0 Z " fill="#090714" transform="translate(171,38)"/>
<path d="M0 0 C0 1.32 0 2.64 0 4 C-2.97851562 4.5859375 -2.97851562 4.5859375 -5.95703125 5.171875 C-8.81500871 6.33036682 -9.58154626 7.23228538 -11 10 C-11.49691195 13.07779271 -11.60237427 16.13683041 -11.6875 19.25 C-11.72166016 20.09046875 -11.75582031 20.9309375 -11.79101562 21.796875 C-11.87323568 23.86412204 -11.93830157 25.93203874 -12 28 C-13.65 28.33 -15.3 28.66 -17 29 C-19.05217837 24.89564327 -18.18489112 19.57324872 -18.1875 15.0625 C-18.19974609 13.95197266 -18.21199219 12.84144531 -18.22460938 11.69726562 C-18.22654297 10.63314453 -18.22847656 9.56902344 -18.23046875 8.47265625 C-18.23457764 7.49562744 -18.23868652 6.51859863 -18.24291992 5.51196289 C-18 3 -18 3 -16 0 C-15.01 0 -14.02 0 -13 0 C-13 0.66 -13 1.32 -13 2 C-11.96875 1.484375 -10.9375 0.96875 -9.875 0.4375 C-6.26947626 -1.13395026 -3.84321557 -1.03110662 0 0 Z " fill="#1F1F20" transform="translate(327,40)"/>
<path d="M0 0 C0.33 0.99 0.66 1.98 1 3 C0.34 3 -0.32 3 -1 3 C-1.433125 3.9590625 -1.433125 3.9590625 -1.875 4.9375 C-3 7 -3 7 -5 8 C-5 9.32 -5 10.64 -5 12 C-4.4225 12.0825 -3.845 12.165 -3.25 12.25 C-0.27423944 13.24192019 1.03998366 14.56687627 3 17 C3.75 19.75 3.75 19.75 4 22 C2.234375 22.68359375 2.234375 22.68359375 0 23 C-1.921875 21.78515625 -1.921875 21.78515625 -3.75 20.0625 C-4.36359375 19.49660156 -4.9771875 18.93070313 -5.609375 18.34765625 C-6.06828125 17.90292969 -6.5271875 17.45820312 -7 17 C-7 17.99 -7 18.98 -7 20 C-6.21625 20.45375 -5.4325 20.9075 -4.625 21.375 C-1.55039988 23.27832388 -1.0093586 24.60488472 0 28 C-0.556875 27.71125 -1.11375 27.4225 -1.6875 27.125 C-3.95073881 25.94623965 -3.95073881 25.94623965 -6.3125 25.3125 C-10.21297008 23.40761927 -13.54884148 20.60822713 -16 17 C-15.58553166 13.72189418 -14.43952739 12.06316782 -12.12890625 9.765625 C-11.55462891 9.19199219 -10.98035156 8.61835937 -10.38867188 8.02734375 C-9.4847168 7.14755859 -9.4847168 7.14755859 -8.5625 6.25 C-7.96373047 5.64800781 -7.36496094 5.04601563 -6.74804688 4.42578125 C-2.26706881 0 -2.26706881 0 0 0 Z " fill="#6D6FBC" transform="translate(28,36)"/>
<path d="M0 0 C2 1.375 2 1.375 3 4.375 C3.66 4.375 4.32 4.375 5 4.375 C5 5.035 5 5.695 5 6.375 C4.34 6.375 3.68 6.375 3 6.375 C4.12451727 9.3469385 5.22293791 11.70940687 7 14.375 C1.11497889 13.05087025 -2.96089209 9.7216542 -7 5.375 C-7 4.715 -7 4.055 -7 3.375 C-7.99 3.87 -7.99 3.87 -9 4.375 C-9 6.025 -9 7.675 -9 9.375 C-8.0409375 9.5296875 -8.0409375 9.5296875 -7.0625 9.6875 C-6.0415625 10.0278125 -6.0415625 10.0278125 -5 10.375 C-4.67 11.365 -4.34 12.355 -4 13.375 C-3.01 13.375 -2.02 13.375 -1 13.375 C-1.66 15.025 -2.32 16.675 -3 18.375 C-3.94875 18.024375 -4.8975 17.67375 -5.875 17.3125 C-8.87060172 16.02473223 -8.87060172 16.02473223 -11 17.375 C-14.21490927 15.23172716 -15.14609413 13.67978872 -17 10.375 C-17.66 9.385 -18.32 8.395 -19 7.375 C-18.625 4.1875 -18.625 4.1875 -18 1.375 C-17.01 1.705 -16.02 2.035 -15 2.375 C-15.0928125 3.550625 -15.0928125 3.550625 -15.1875 4.75 C-15.125625 5.61625 -15.06375 6.4825 -15 7.375 C-14.01 8.035 -13.02 8.695 -12 9.375 C-12.185625 8.776875 -12.37125 8.17875 -12.5625 7.5625 C-13 5.375 -13 5.375 -12 2.375 C-8.10776794 0.27608974 -4.35014743 -0.90628071 0 0 Z " fill="#586ABD" transform="translate(51,40.625)"/>
<path d="M0 0 C2.03759434 1.07638136 3.34526781 2.16055107 4.796875 3.94921875 C4.734375 6.51171875 4.734375 6.51171875 3.796875 8.94921875 C1.734375 10.26171875 1.734375 10.26171875 -0.203125 10.94921875 C-1.193125 10.28921875 -2.183125 9.62921875 -3.203125 8.94921875 C-5.94185455 8.49149812 -5.94185455 8.49149812 -8.890625 8.32421875 C-9.88449219 8.24945313 -10.87835938 8.1746875 -11.90234375 8.09765625 C-12.66160156 8.04867187 -13.42085938 7.9996875 -14.203125 7.94921875 C-13.873125 9.59921875 -13.543125 11.24921875 -13.203125 12.94921875 C-14.523125 12.61921875 -15.843125 12.28921875 -17.203125 11.94921875 C-16.873125 9.63921875 -16.543125 7.32921875 -16.203125 4.94921875 C-17.193125 5.44421875 -17.193125 5.44421875 -18.203125 5.94921875 C-18.863125 4.29921875 -19.523125 2.64921875 -20.203125 0.94921875 C-12.95866762 -2.59908691 -7.58738418 -2.86803122 0 0 Z " fill="#0C0A17" transform="translate(110.203125,31.05078125)"/>
<path d="M0 0 C3.18915068 0.33732948 4.82246394 1.45797907 7.015625 3.72265625 C7.54414062 4.26083984 8.07265625 4.79902344 8.6171875 5.35351562 C9.15601562 5.91748047 9.69484375 6.48144531 10.25 7.0625 C10.80429688 7.63033203 11.35859375 8.19816406 11.9296875 8.78320312 C13.29334214 10.18212469 14.64760417 11.59019114 16 13 C14.22055838 16.81537933 12.06193097 19.07119646 9 22 C8.04480469 23.0209375 8.04480469 23.0209375 7.0703125 24.0625 C6.38710937 24.784375 5.70390625 25.50625 5 26.25 C4.360625 26.93578125 3.72125 27.6215625 3.0625 28.328125 C0.69425738 30.24783682 -1.00566464 30.64650208 -4 31 C-4.33 30.01 -4.66 29.02 -5 28 C-1.66666667 24.66666667 1.66666667 21.33333333 5 18 C4.67 17.01 4.34 16.02 4 15 C6.16874252 15.50603992 7.99967627 15.99983813 10 17 C8.328164 13.74920778 6.84070651 11.86725543 4 9.5 C1.15929349 7.13274457 -0.328164 5.25079222 -2 2 C-1.34 1.34 -0.68 0.68 0 0 Z " fill="#483599" transform="translate(62,37)"/>
<path d="M0 0 C2 0.25 2 0.25 4 1 C4.33 1.99 4.66 2.98 5 4 C4.50886719 4.33644531 4.01773437 4.67289063 3.51171875 5.01953125 C1.22719594 8.01243323 1.681424 11.08795135 1.8125 14.6875 C1.82603516 15.38939453 1.83957031 16.09128906 1.85351562 16.81445312 C1.88879818 18.54329829 1.94260417 20.27174765 2 22 C2.33 21.01 2.66 20.02 3 19 C6 20 6 20 8 23 C11.03125944 23.63846262 13.95400604 23.53192909 17 23 C18.98239527 21.13875077 18.98239527 21.13875077 20 19 C20.66 19 21.32 19 22 19 C20.52307692 23.67692308 20.52307692 23.67692308 17.875 25.3125 C17.25625 25.539375 16.6375 25.76625 16 26 C16.33 26.99 16.66 27.98 17 29 C12.66726186 29.92844389 9.33273814 29.92844389 5 29 C4.67 30.98 4.34 32.96 4 35 C2.0625 35.5625 2.0625 35.5625 0 36 C-1.7329298 34.2670702 -1.12820046 32.03785664 -1.13894653 29.72851562 C-1.1369223 28.99310547 -1.13489807 28.25769531 -1.1328125 27.5 C-1.13376923 26.74912109 -1.13472595 25.99824219 -1.13571167 25.22460938 C-1.13639338 23.63411373 -1.13453972 22.04361533 -1.13037109 20.453125 C-1.12502267 18.01035345 -1.13031634 15.56776579 -1.13671875 13.125 C-1.13605797 11.58333293 -1.1347768 10.04166597 -1.1328125 8.5 C-1.13483673 7.76458984 -1.13686096 7.02917969 -1.13894653 6.27148438 C-1.11495161 1.11495161 -1.11495161 1.11495161 0 0 Z " fill="#26252D" transform="translate(330,40)"/>
<path d="M0 0 C3.5625 0.25 3.5625 0.25 7 1 C8.52264109 4.04528219 8.16285537 7.22145246 8.16796875 10.5625 C8.17129715 11.30959229 8.17462555 12.05668457 8.17805481 12.82641602 C8.18311966 14.40673201 8.18546327 15.98705871 8.18530273 17.56738281 C8.18749134 19.99041243 8.20565701 22.41298836 8.22460938 24.8359375 C8.22754292 26.3697901 8.22952798 27.90364488 8.23046875 29.4375 C8.23765427 30.16461182 8.24483978 30.89172363 8.25224304 31.64086914 C8.22882803 36.77117197 8.22882803 36.77117197 6 39 C5 38 5 38 4.88647461 34.58178711 C4.88663372 33.06363012 4.89232774 31.54546771 4.90234375 30.02734375 C4.9037587 29.22970108 4.90517365 28.43205841 4.90663147 27.61024475 C4.91224684 25.05262565 4.92480188 22.49509282 4.9375 19.9375 C4.94251302 18.20768355 4.94707627 16.47786574 4.95117188 14.74804688 C4.96222125 10.49866447 4.97949614 6.24934688 5 2 C3.35 2 1.7 2 0 2 C0.33 14.21 0.66 26.42 1 39 C0.01 39.495 0.01 39.495 -1 40 C-2.57667147 36.84665706 -2.16297041 33.46237759 -2.16796875 30 C-2.17129715 29.20851563 -2.17462555 28.41703125 -2.17805481 27.6015625 C-2.1831204 25.92708925 -2.18546325 24.2526059 -2.18530273 22.578125 C-2.18749127 20.01024865 -2.20565609 17.44280041 -2.22460938 14.875 C-2.22754291 13.25000147 -2.22952797 11.6250009 -2.23046875 10 C-2.23765427 9.22914062 -2.24483978 8.45828125 -2.25224304 7.6640625 C-2.2288272 2.2288272 -2.2288272 2.2288272 0 0 Z " fill="#1F1E26" transform="translate(226,28)"/>
<path d="M0 0 C2.97 0.495 2.97 0.495 6 1 C6.66 2.98 7.32 4.96 8 7 C8.66 6.34 9.32 5.68 10 5 C10 5.99 10 6.98 10 8 C10.66 8 11.32 8 12 8 C11.67 8.66 11.34 9.32 11 10 C15.96920684 11.77759876 15.96920684 11.77759876 21 11 C21 11.99 21 12.98 21 14 C19.68662604 15.0260734 18.35335895 16.02727325 17 17 C17 17.66 17 18.32 17 19 C12.69351876 19.15624422 9.27791027 19.07080879 5.87890625 16.22265625 C0.86421414 10.45732415 -0.12158062 7.53799843 0 0 Z " fill="#060412" transform="translate(189,51)"/>
<path d="M0 0 C0.66 0 1.32 0 2 0 C1.86162204 4.29194146 1.71304061 8.58346929 1.5625 12.875 C1.50352539 14.70998047 1.50352539 14.70998047 1.44335938 16.58203125 C1.40146484 17.74863281 1.35957031 18.91523437 1.31640625 20.1171875 C1.27974854 21.19597168 1.24309082 22.27475586 1.20532227 23.38623047 C1 26 1 26 0 28 C-1.32 27.67 -2.64 27.34 -4 27 C-4 19.08 -4 11.16 -4 3 C-2.68 2.67 -1.36 2.34 0 2 C0 1.34 0 0.68 0 0 Z " fill="#080613" transform="translate(184,39)"/>
<path d="M0 0 C5.29219538 3.47069557 8.37347976 5.64178452 10 12 C10.99 12.33 11.98 12.66 13 13 C14.82421875 14.84765625 14.82421875 14.84765625 16.6875 17.0625 C17.62142578 18.16271484 17.62142578 18.16271484 18.57421875 19.28515625 C19.27998047 20.13400391 19.27998047 20.13400391 20 21 C20.99 20.67 21.98 20.34 23 20 C22.67 21.98 22.34 23.96 22 26 C19.84174363 25.03250577 18.2099391 24.21906689 16.5625 22.5 C15.04807811 20.83844919 15.04807811 20.83844919 12.703125 20.1953125 C9.45508807 18.75904184 7.63530455 16.93240774 5.1875 14.375 C4.39730469 13.55773437 3.60710938 12.74046875 2.79296875 11.8984375 C2.20128906 11.27195312 1.60960937 10.64546875 1 10 C1.99 9.67 2.98 9.34 4 9 C4.66 9.33 5.32 9.66 6 10 C4.74381926 6.23145777 3.33985294 5.92041544 0 4 C-0.33 3.34 -0.66 2.68 -1 2 C-0.67 1.34 -0.34 0.68 0 0 Z " fill="#5F7AAC" transform="translate(20,52)"/>
<path d="M0 0 C1.65 0.33 3.3 0.66 5 1 C4.01 1.495 4.01 1.495 3 2 C3.495 2.94875 3.99 3.8975 4.5 4.875 C6 8 6 8 6 10 C5.34 10 4.68 10 4 10 C4 18.58 4 27.16 4 36 C3.34 36 2.68 36 2 36 C2.00523682 35.09644775 2.01047363 34.19289551 2.01586914 33.26196289 C2.03287686 29.92048511 2.04543333 26.57905308 2.05493164 23.23754883 C2.05997101 21.78929927 2.06680253 20.34105483 2.07543945 18.89282227 C2.08752247 16.81525412 2.09323211 14.73775303 2.09765625 12.66015625 C2.10289307 11.40855713 2.10812988 10.15695801 2.11352539 8.86743164 C2.32887035 6.10267706 2.32887035 6.10267706 1 5 C1 15.23 1 25.46 1 36 C0.34 35.67 -0.32 35.34 -1 35 C-1.20638953 10.01734161 -1.20638953 10.01734161 0 0 Z " fill="#242329" transform="translate(236,30)"/>
<path d="M0 0 C0.66 0 1.32 0 2 0 C1.79375 0.78375 1.5875 1.5675 1.375 2.375 C1.25125 3.24125 1.1275 4.1075 1 5 C1.66 5.66 2.32 6.32 3 7 C3.5625 8.83984375 3.5625 8.83984375 4 10.9375 C4.63894709 13.98961332 5.19101584 15.28652376 7 18 C8.96361864 18.57748803 8.96361864 18.57748803 11.125 18.6875 C12.40375 18.790625 13.6825 18.89375 15 19 C15 19.66 15 20.32 15 21 C13.35 21 11.7 21 10 21 C10 21.99 10 22.98 10 24 C6.02992844 23.72301826 4.27610788 23.23315777 1.1875 20.625 C-1.89358591 16.92769691 -2.15582137 14.23193011 -2.1875 9.5625 C-2.20167969 8.61503906 -2.21585937 7.66757812 -2.23046875 6.69140625 C-1.99614518 3.95498356 -1.39701383 2.33571877 0 0 Z " fill="#1C1C20" transform="translate(279,45)"/>
<path d="M0 0 C0 1.65 0 3.3 0 5 C-2 6 -2 6 -5.9375 5.875 C-9.11199447 5.77942874 -9.11199447 5.77942874 -11.8125 7.3125 C-12.204375 7.869375 -12.59625 8.42625 -13 9 C-13.804375 9.61875 -13.804375 9.61875 -14.625 10.25 C-16.72241318 12.91943495 -16.68809431 15.69379974 -17 19 C-19.1825388 15.54226999 -19.07298856 13.40174889 -18.3125 9.4375 C-18.05919922 8.01244141 -18.05919922 8.01244141 -17.80078125 6.55859375 C-16.67688557 2.96761001 -15.05175195 1.61867762 -11.875 -0.25 C-7.78337227 -1.31738115 -4.13156248 -0.66609068 0 0 Z " fill="#242425" transform="translate(297,40)"/>
<path d="M0 0 C0.515625 0.2475 1.03125 0.495 1.5625 0.75 C0.5725 1.245 0.5725 1.245 -0.4375 1.75 C-0.4375 2.41 -0.4375 3.07 -0.4375 3.75 C-1.7575 4.08 -3.0775 4.41 -4.4375 4.75 C-4.7675 11.68 -5.0975 18.61 -5.4375 25.75 C-6.4275 26.08 -7.4175 26.41 -8.4375 26.75 C-9.6638757 24.29724859 -9.55165314 22.6994219 -9.53515625 19.9609375 C-9.53193359 19.01992188 -9.52871094 18.07890625 -9.52539062 17.109375 C-9.51701172 16.12453125 -9.50863281 15.1396875 -9.5 14.125 C-9.49548828 13.13242187 -9.49097656 12.13984375 -9.48632812 11.1171875 C-9.47452145 8.6613984 -9.458054 6.20572896 -9.4375 3.75 C-2.7421875 -0.28125 -2.7421875 -0.28125 0 0 Z " fill="#151418" transform="translate(371.4375,42.25)"/>
<path d="M0 0 C0.99 0 1.98 0 3 0 C7.09628009 4.89277899 7.09628009 4.89277899 6.75 8.875 C6.5025 9.57625 6.255 10.2775 6 11 C4.68 10.67 3.36 10.34 2 10 C2 18.58 2 27.16 2 36 C-0.475 36.495 -0.475 36.495 -3 37 C-2.67 25.78 -2.34 14.56 -2 3 C-1.34 3.33 -0.68 3.66 0 4 C-0.33 13.9 -0.66 23.8 -1 34 C-0.34 34 0.32 34 1 34 C1 25.42 1 16.84 1 8 C1.66 8 2.32 8 3 8 C2.505 7.05125 2.01 6.1025 1.5 5.125 C0 2 0 2 0 0 Z " fill="#0A090C" transform="translate(239,32)"/>
<path d="M0 0 C6.40773468 1.91107876 10.99545099 4.49374511 15 10 C15 10.99 15 11.98 15 13 C13.02 12.34 11.04 11.68 9 11 C9.66 12.32 10.32 13.64 11 15 C9.02 15.99 9.02 15.99 7 17 C6.67 15.68 6.34 14.36 6 13 C5.34 13 4.68 13 4 13 C3.566875 11.63875 3.566875 11.63875 3.125 10.25 C2.12804594 7.1223223 2.12804594 7.1223223 0.875 4.8125 C0 3 0 3 0 0 Z " fill="#303D98" transform="translate(57,41)"/>
<path d="M0 0 C0.66 0.66 1.32 1.32 2 2 C2.99 1.67 3.98 1.34 5 1 C6.1353654 3.27073079 6.12892412 4.54283279 6.1328125 7.0625 C6.13410156 7.85914063 6.13539063 8.65578125 6.13671875 9.4765625 C6.13091797 10.72566406 6.13091797 10.72566406 6.125 12 C6.12886719 12.83273438 6.13273437 13.66546875 6.13671875 14.5234375 C6.13542969 15.32007813 6.13414062 16.11671875 6.1328125 16.9375 C6.13168457 17.66839844 6.13055664 18.39929688 6.12939453 19.15234375 C6 21 6 21 5 23 C3.35 22.67 1.7 22.34 0 22 C0 14.74 0 7.48 0 0 Z " fill="#282A2C" transform="translate(379,46)"/>
<path d="M0 0 C0.66 0.66 1.32 1.32 2 2 C1.8125 4.0625 1.8125 4.0625 1 6 C0.01 6.33 -0.98 6.66 -2 7 C-1.67 7.598125 -1.34 8.19625 -1 8.8125 C0 11 0 11 0 14 C-1.32 14.33 -2.64 14.66 -4 15 C-4 15.763125 -4 16.52625 -4 17.3125 C-4 19.20833333 -4 21.10416667 -4 23 C-5.32 22.01 -6.64 21.02 -8 20 C-7.67 17.36 -7.34 14.72 -7 12 C-7.66 12 -8.32 12 -9 12 C-8.45015228 8.12488273 -6.72444669 6.40423494 -3.9375 3.75 C-3.20402344 3.04359375 -2.47054687 2.3371875 -1.71484375 1.609375 C-1.14894531 1.07828125 -0.58304688 0.5471875 0 0 Z " fill="#704EB0" transform="translate(43,28)"/>
<path d="M0 0 C0.99 0.33 1.98 0.66 3 1 C2.34 1 1.68 1 1 1 C1 4.63 1 8.26 1 12 C1.99 12 2.98 12 4 12 C4 17.28 4 22.56 4 28 C2.68 28 1.36 28 0 28 C-1.29361994 25.41276011 -1.12948949 23.51886997 -1.1328125 20.625 C-1.13410156 19.55765625 -1.13539063 18.4903125 -1.13671875 17.390625 C-1.13285156 16.27171875 -1.12898438 15.1528125 -1.125 14 C-1.12886719 12.88109375 -1.13273437 11.7621875 -1.13671875 10.609375 C-1.13542969 9.54203125 -1.13414062 8.4746875 -1.1328125 7.375 C-1.13168457 6.39273438 -1.13055664 5.41046875 -1.12939453 4.3984375 C-1 2 -1 2 0 0 Z " fill="#444447" transform="translate(310,41)"/>
<path d="M0 0 C3 1 3 1 5 4 C8.03125944 4.63846262 10.95400604 4.53192909 14 4 C15.98239527 2.13875077 15.98239527 2.13875077 17 0 C17.66 0 18.32 0 19 0 C17.52307692 4.67692308 17.52307692 4.67692308 14.875 6.3125 C13.946875 6.6528125 13.946875 6.6528125 13 7 C13.33 7.99 13.66 8.98 14 10 C9.37078475 11.0161692 5.65537393 10.83796731 1 10 C1 9.01 1 8.02 1 7 C0.34 6.67 -0.32 6.34 -1 6 C-0.67 4.02 -0.34 2.04 0 0 Z " fill="#1C1B20" transform="translate(333,59)"/>
<path d="M0 0 C2.875 -0.1875 2.875 -0.1875 6 0 C8.29755922 3.44633882 8.23643976 4.71068391 8.1953125 8.76171875 C8.18564453 10.43911133 8.18564453 10.43911133 8.17578125 12.15039062 C8.15902344 13.31763672 8.14226562 14.48488281 8.125 15.6875 C8.11597656 16.86634766 8.10695312 18.04519531 8.09765625 19.25976562 C8.07406423 22.17338026 8.0411454 25.08658892 8 28 C7.34 28.33 6.68 28.66 6 29 C5.00544091 26.01632274 4.80440368 23.7995808 4.68359375 20.67578125 C4.64169922 19.64775391 4.59980469 18.61972656 4.55664062 17.56054688 C4.51732422 16.48869141 4.47800781 15.41683594 4.4375 14.3125 C4.39431641 13.22904297 4.35113281 12.14558594 4.30664062 11.02929688 C4.20053162 8.35299209 4.09847639 5.67659474 4 3 C2.35 2.67 0.7 2.34 -1 2 C-0.67 1.34 -0.34 0.68 0 0 Z " fill="#13121A" transform="translate(212,38)"/>
<path d="M0 0 C2.625 0.6875 2.625 0.6875 5 2 C5.33 2.99 5.66 3.98 6 5 C6.66 5 7.32 5 8 5 C8 5.66 8 6.32 8 7 C7.34 7 6.68 7 6 7 C7.12451727 9.9719385 8.22293791 12.33440687 10 15 C3.95566426 13.64002446 0.36505864 10.14348206 -4 6 C-3.6875 4.125 -3.6875 4.125 -3 2 C-2.01 1.34 -1.02 0.68 0 0 Z " fill="#4C48AB" transform="translate(48,40)"/>
<path d="M0 0 C6.75 0.75 6.75 0.75 9 3 C8.34 4.65 7.68 6.3 7 8 C5.68 7.67 4.36 7.34 3 7 C2.67 7.99 2.34 8.98 2 10 C1.67 9.01 1.34 8.02 1 7 C-0.155 6.67 -1.31 6.34 -2.5 6 C-3.655 5.67 -4.81 5.34 -6 5 C-6.33 4.01 -6.66 3.02 -7 2 C-3.535 1.505 -3.535 1.505 0 1 C0 0.67 0 0.34 0 0 Z " fill="#080613" transform="translate(101,45)"/>
<path d="M0 0 C-0.495 0.61875 -0.99 1.2375 -1.5 1.875 C-3.19222773 3.83880904 -3.19222773 3.83880904 -3 6 C-1.68 5.67 -0.36 5.34 1 5 C-0.11666174 8.34998521 -0.74694925 8.79340222 -3.5625 10.6875 C-4.52349609 11.34298828 -4.52349609 11.34298828 -5.50390625 12.01171875 C-5.99761719 12.33785156 -6.49132813 12.66398437 -7 13 C-7.99 12.01 -8.98 11.02 -10 10 C-9.57781184 8.3501725 -9.13675575 6.70516335 -8.6875 5.0625 C-8.44386719 4.14597656 -8.20023438 3.22945313 -7.94921875 2.28515625 C-7.47935547 1.15400391 -7.47935547 1.15400391 -7 0 C-3.86650268 -1.04449911 -3.01031744 -0.93423645 0 0 Z " fill="#558AAB" transform="translate(61,62)"/>
<path d="M0 0 C0.66 0.33 1.32 0.66 2 1 C1.83701416 1.57524414 1.67402832 2.15048828 1.50610352 2.74316406 C1.00962472 4.95708107 0.88520256 6.84673797 0.90234375 9.109375 C0.90556641 9.86347656 0.90878906 10.61757813 0.91210938 11.39453125 C0.92048828 12.17183594 0.92886719 12.94914062 0.9375 13.75 C0.94201172 14.54277344 0.94652344 15.33554687 0.95117188 16.15234375 C0.96291435 18.10159508 0.98084854 20.05080738 1 22 C0.67 22 0.34 22 0 22 C0 18.7 0 15.4 0 12 C-1.65 13.32 -3.3 14.64 -5 16 C-5 14.68 -5 13.36 -5 12 C-5.66 12 -6.32 12 -7 12 C-5.44298069 7.32894208 -2.91552627 3.91294315 0 0 Z " fill="#222225" transform="translate(267,30)"/>
<path d="M0 0 C3.0625 0.125 3.0625 0.125 5.0625 1.125 C5.3125 3.9375 5.3125 3.9375 5.0625 7.125 C3.0625 9 3.0625 9 1.0625 10.125 C-1.4375 9 -1.4375 9 -3.9375 7.125 C-4.3125 4 -4.3125 4 -3.9375 1.125 C-2.9375 0.125 -2.9375 0.125 0 0 Z " fill="#0B0914" transform="translate(181.9375,28.875)"/>
<path d="M0 0 C0.66 0.33 1.32 0.66 2 1 C2.33 1.99 2.66 2.98 3 4 C3.66 3.34 4.32 2.68 5 2 C6.42857143 10.57142857 6.42857143 10.57142857 4 14 C4 13.01 4 12.02 4 11 C3.34 11 2.68 11 2 11 C1.9175 11.763125 1.835 12.52625 1.75 13.3125 C0.85384206 16.52373261 -0.21611025 17.29374499 -3 19 C-4.125 15.25 -4.125 15.25 -3 13 C-2.34 13 -1.68 13 -1 13 C-0.3041673 8.97963329 0.16186594 5.92129754 -1 2 C-0.67 1.34 -0.34 0.68 0 0 Z " fill="#110F1A" transform="translate(146,46)"/>
<path d="M0 0 C0.99 0.33 1.98 0.66 3 1 C3 1.66 3 2.32 3 3 C3.66 3 4.32 3 5 3 C5.061875 3.598125 5.12375 4.19625 5.1875 4.8125 C5.8292145 7.24455676 5.8292145 7.24455676 8.4375 8.4375 C11.4803882 10.29291963 12.00487602 11.65276481 13 15 C12.443125 14.71125 11.88625 14.4225 11.3125 14.125 C9.04926119 12.94623965 9.04926119 12.94623965 6.6875 12.3125 C2.73286275 10.38116553 -0.22114584 7.3954875 -3 4 C-3 3.34 -3 2.68 -3 2 C-2.01 1.34 -1.02 0.68 0 0 Z " fill="#464FC5" transform="translate(15,49)"/>
<path d="M0 0 C2 0 2 0 4.125 1.875 C6 4 6 4 6 6 C6.66 6 7.32 6 8 6 C9.625 7.5 9.625 7.5 11 9 C14.81684226 7.44499019 17.19195732 4.96404505 20 2 C20.66 2.33 21.32 2.66 22 3 C21.67 3.66 21.34 4.32 21 5 C20.34 5 19.68 5 19 5 C19.103125 5.721875 19.20625 6.44375 19.3125 7.1875 C18.87550935 11.12041589 16.89917803 12.46321923 14 15 C13.34 14.67 12.68 14.34 12 14 C12 13.67 12 13.34 12 13 C11.175 12.360625 10.35 11.72125 9.5 11.0625 C8.675 10.381875 7.85 9.70125 7 9 C7 8.34 7 7.68 7 7 C6.01 6.67 5.02 6.34 4 6 C4 5.34 4 4.68 4 4 C2.68 3.67 1.36 3.34 0 3 C0 2.01 0 1.02 0 0 Z " fill="#91B3C0" transform="translate(29,61)"/>
<path d="M0 0 C0 3 0 3 -2.1171875 5.48046875 C-3.02726562 6.37378906 -3.93734375 7.26710938 -4.875 8.1875 C-5.77992187 9.08855469 -6.68484375 9.98960938 -7.6171875 10.91796875 C-10 13 -10 13 -12 13 C-12.2475 13.5775 -12.495 14.155 -12.75 14.75 C-14.53195718 17.95752293 -16.7014109 20.35070545 -20 22 C-20.33 20.02 -20.66 18.04 -21 16 C-20.01 16.33 -19.02 16.66 -18 17 C-17.67 16.01 -17.34 15.02 -17 14 C-16.34 13.34 -15.68 12.68 -15 12 C-15.33 11.01 -15.66 10.02 -16 9 C-13.525 9.99 -13.525 9.99 -11 11 C-7.37 7.37 -3.74 3.74 0 0 Z " fill="#AA9BD4" transform="translate(43,26)"/>
<path d="M0 0 C6.21209884 1.88245419 10.54628362 6.47880306 15 11 C13.35 11.66 11.7 12.32 10 13 C9.67 12.01 9.34 11.02 9 10 C7.35 10 5.7 10 4 10 C3.67 8.68 3.34 7.36 3 6 C1.68 5.67 0.36 5.34 -1 5 C-0.67 3.35 -0.34 1.7 0 0 Z " fill="#3D40B3" transform="translate(42,45)"/>
<path d="M0 0 C-3.27194342 4.10398401 -6.15189388 7.71061656 -11 10 C-11.66 10 -12.32 10 -13 10 C-13.33 9.01 -13.66 8.02 -14 7 C-12.87811441 5.85111717 -11.75238316 4.70598863 -10.625 3.5625 C-9.99851562 2.92441406 -9.37203125 2.28632812 -8.7265625 1.62890625 C-5.59465346 -1.32585862 -4.04865414 -0.95889177 0 0 Z " fill="#37588F" transform="translate(71,58)"/>
<path d="M0 0 C3.45141917 1.53396408 6.09980439 3.59495974 9 6 C10.3921875 7.11375 10.3921875 7.11375 11.8125 8.25 C12.534375 8.8275 13.25625 9.405 14 10 C13.67 10.99 13.34 11.98 13 13 C8.08060726 12.85092749 5.66417075 10.23779353 2.44921875 6.85546875 C0.70555487 4.62301499 0.0858517 2.83310613 0 0 Z " fill="#3D56A5" transform="translate(18,46)"/>
<path d="M0 0 C3.80625982 1.49531636 5.77940501 3.58980056 8 7 C8.25 9.8125 8.25 9.8125 8 12 C7.34 12 6.68 12 6 12 C5.67 13.65 5.34 15.3 5 17 C2.80303036 13.70454554 2.08200806 10.78702822 1 7 C0.34 6.01 -0.32 5.02 -1 4 C-0.625 1.8125 -0.625 1.8125 0 0 Z " fill="#25252A" transform="translate(297,41)"/>
<path d="M0 0 C2.82664274 1.0780444 4.31249339 2.69686806 6.390625 4.87890625 C7.09703125 5.61238281 7.8034375 6.34585937 8.53125 7.1015625 C9.06234375 7.66746094 9.5934375 8.23335937 10.140625 8.81640625 C9.810625 9.80640625 9.480625 10.79640625 9.140625 11.81640625 C6.352054 10.45031978 3.62891429 9.01776242 0.953125 7.44140625 C0.25832031 7.04179688 -0.43648437 6.6421875 -1.15234375 6.23046875 C-3.20278942 4.53193023 -3.49005326 3.4071707 -3.859375 0.81640625 C-1.859375 -0.18359375 -1.859375 -0.18359375 0 0 Z " fill="#7844B5" transform="translate(51.859375,25.18359375)"/>
<path d="M0 0 C0.66 0.66 1.32 1.32 2 2 C1.34 2 0.68 2 0 2 C0.309375 2.680625 0.61875 3.36125 0.9375 4.0625 C1 7 1 7 -0.4921875 8.890625 C-2.2804968 10.65738841 -4.09924927 12.35521072 -6 14 C-6.33 13.34 -6.66 12.68 -7 12 C-7.99 11.67 -8.98 11.34 -10 11 C-9.09066991 9.72390677 -8.17217147 8.45434447 -7.25 7.1875 C-6.73953125 6.47980469 -6.2290625 5.77210937 -5.703125 5.04296875 C-3.97517642 2.97022309 -2.21473524 1.52624146 0 0 Z " fill="#6A43A9" transform="translate(38,24)"/>
<path d="M0 0 C0.99 0 1.98 0 3 0 C3 0.66 3 1.32 3 2 C4.32 2 5.64 2 7 2 C5.62660359 4.95808458 4.27436849 7.64139564 2 10 C-0.6875 10.25 -0.6875 10.25 -3 10 C-3.66 8.02 -4.32 6.04 -5 4 C-2.83125748 4.50603992 -1.00032373 4.99983813 1 6 C0.67 4.02 0.34 2.04 0 0 Z " fill="#26378C" transform="translate(71,48)"/>
<path d="M0 0 C0.33 0 0.66 0 1 0 C1.309375 1.093125 1.61875 2.18625 1.9375 3.3125 C2.58337897 5.55407994 3.2623117 7.7869351 4 10 C4.03954234 12.33299825 4.04401732 14.66708189 4 17 C3.34 17 2.68 17 2 17 C1.67 21.95 1.34 26.9 1 32 C0.67 32 0.34 32 0 32 C0 21.44 0 10.88 0 0 Z " fill="#111018" transform="translate(331,42)"/>
<path d="M0 0 C1.9375 1.375 1.9375 1.375 3 3 C3 3.66 3 4.32 3 5 C0.69 5 -1.62 5 -4 5 C-3.01 5.66 -2.02 6.32 -1 7 C-3.31 7.66 -5.62 8.32 -8 9 C-8.309375 8.05125 -8.61875 7.1025 -8.9375 6.125 C-9.87394742 3.13919592 -9.87394742 3.13919592 -11 1 C-7.30516081 -0.18234854 -3.85646386 -0.2804701 0 0 Z " fill="#060411" transform="translate(207,40)"/>
<path d="M0 0 C3 0 3 0 4.82421875 1.75 C5.43910156 2.4925 6.05398437 3.235 6.6875 4 C7.31011719 4.7425 7.93273438 5.485 8.57421875 6.25 C9.04472656 6.8275 9.51523437 7.405 10 8 C10.99 7.67 11.98 7.34 13 7 C12.67 8.98 12.34 10.96 12 13 C9.84174363 12.03250577 8.2099391 11.21906689 6.5625 9.5 C4.5843405 7.60096688 2.56441218 6.90100969 0 6 C0 4 0 2 0 0 Z " fill="#5092AA" transform="translate(30,65)"/>
<path d="M0 0 C0.33 0.99 0.66 1.98 1 3 C0.34 3 -0.32 3 -1 3 C-1 9.6 -1 16.2 -1 23 C-1.33 23 -1.66 23 -2 23 C-2.33 16.73 -2.66 10.46 -3 4 C-3.66 4 -4.32 4 -5 4 C-5 3.34 -5 2.68 -5 2 C-5.99 1.67 -6.98 1.34 -8 1 C-8.33 0.01 -8.66 -0.98 -9 -2 C-5.1007255 -3.58859331 -3.25267293 -2.46148222 0 0 Z " fill="#15141A" transform="translate(383,44)"/>
<path d="M0 0 C0.99 0 1.98 0 3 0 C4.2077558 3.62326739 3.54311128 4.64146369 2 8 C2.99 8.33 3.98 8.66 5 9 C4.67 15.27 4.34 21.54 4 28 C3.67 28 3.34 28 3 28 C3 23.05 3 18.1 3 13 C2.01 13 1.02 13 0 13 C0 8.71 0 4.42 0 0 Z " fill="#111014" transform="translate(311,40)"/>
<path d="M0 0 C0 4.62 0 9.24 0 14 C-1.98 14.99 -1.98 14.99 -4 16 C-4 11.05 -4 6.1 -4 1 C-1 0 -1 0 0 0 Z " fill="#131216" transform="translate(366,29)"/>
<path d="M0 0 C0.99 0.33 1.98 0.66 3 1 C3 5.29 3 9.58 3 14 C1.68 14.33 0.36 14.66 -1 15 C-1.22211116 13.06403108 -1.42722992 11.12610672 -1.625 9.1875 C-1.74101562 8.10855469 -1.85703125 7.02960937 -1.9765625 5.91796875 C-2 3 -2 3 0 0 Z " fill="#11111D" transform="translate(269,30)"/>
<path d="M0 0 C1.32 0 2.64 0 4 0 C4 0.66 4 1.32 4 2 C6.64738916 3.4606285 7.89448334 4 11 4 C12.67099977 4.31088368 14.33871537 4.64080332 16 5 C15.67 5.99 15.34 6.98 15 8 C11.9375 9.1875 11.9375 9.1875 9 10 C8.67 9.01 8.34 8.02 8 7 C7.401875 6.71125 6.80375 6.4225 6.1875 6.125 C3.30899659 4.64462682 1.89900001 2.57721429 0 0 Z " fill="#9AAAD3" transform="translate(31,55)"/>
<path d="M0 0 C0.99 0.33 1.98 0.66 3 1 C3 1.66 3 2.32 3 3 C2.01 3.33 1.02 3.66 0 4 C-0.33 11.26 -0.66 18.52 -1 26 C-1.33 26 -1.66 26 -2 26 C-2.8703852 20.70047719 -3.2127567 15.5551912 -3.25 10.1875 C-3.270625 9.42501953 -3.29125 8.66253906 -3.3125 7.87695312 C-3.328125 5.66796875 -3.328125 5.66796875 -3 2 C-2.01 1.34 -1.02 0.68 0 0 Z " fill="#27262F" transform="translate(181,38)"/>
<path d="M0 0 C3.00648481 0.19190329 5.23406196 0.52459018 7.8125 2.125 C9.65429091 5.03309091 9.82390868 7.59556789 10 11 C9.25 13.875 9.25 13.875 8 16 C7.01 16.33 6.02 16.66 5 17 C5.350625 15.783125 5.70125 14.56625 6.0625 13.3125 C6.93456352 9.87913104 7.07703169 7.44650141 6 4 C3.36 3.34 0.72 2.68 -2 2 C-1.34 1.34 -0.68 0.68 0 0 Z " fill="#0E0D17" transform="translate(203,44)"/>
<path d="M0 0 C2.96175123 0.61277612 4.38058783 1.25372522 7 3 C7 4.32 7 5.64 7 7 C7.66 7 8.32 7 9 7 C9.33 7.99 9.66 8.98 10 10 C8.35 10.66 6.7 11.32 5 12 C4.9175 11.4225 4.835 10.845 4.75 10.25 C4.13235669 7.82092075 4.13235669 7.82092075 1.9375 6 C0 4 0 4 0 0 Z " fill="#384A9D" transform="translate(54,47)"/>
<path d="M0 0 C3.18609925 0.35401103 4.79066678 0.83027036 7.3125 2.875 C9 5 9 5 9 8 C8.34 8 7.68 8 7 8 C7 7.01 7 6.02 7 5 C6.01 5.33 5.02 5.66 4 6 C4 5.34 4 4.68 4 4 C3.01 4 2.02 4 1 4 C1 4.66 1 5.32 1 6 C-0.98 6 -2.96 6 -5 6 C-3.35 4.02 -1.7 2.04 0 0 Z " fill="#593AA6" transform="translate(47,32)"/>
<path d="M0 0 C2.87793751 1.29010992 4.96183917 2.57361806 7 5 C7.33 5.99 7.66 6.98 8 8 C8.99 8 9.98 8 11 8 C12.68236471 8.62599617 14.3523962 9.28752268 16 10 C13.35261084 11.4606285 12.10551666 12 9 12 C6.96868328 10.71488126 4.96722008 9.38123963 3 8 C2.34 7.67 1.68 7.34 1 7 C1 6.34 1 5.68 1 5 C1.66 5 2.32 5 3 5 C2.01 3.35 1.02 1.7 0 0 Z " fill="#38509C" transform="translate(30,48)"/>
<path d="M0 0 C1.65 0.99 3.3 1.98 5 3 C4.67 5.97 4.34 8.94 4 12 C2.68 12.33 1.36 12.66 0 13 C-1 12 -1 12 -1.1328125 9.53125 C-1.13023437 8.5309375 -1.12765625 7.530625 -1.125 6.5 C-1.12757813 5.4996875 -1.13015625 4.499375 -1.1328125 3.46875 C-1 1 -1 1 0 0 Z " fill="#302F33" transform="translate(330,63)"/>
<path d="M0 0 C3.67420866 0.30618405 4.78135513 0.75771784 7.3125 3.5625 C8.1478125 4.7690625 8.1478125 4.7690625 9 6 C6.69 6.66 4.38 7.32 2 8 C2 7.01 2 6.02 2 5 C1.01 5 0.02 5 -1 5 C-0.67 3.35 -0.34 1.7 0 0 Z " fill="#9137C0" transform="translate(43,19)"/>
<path d="M0 0 C0.66 1.32 1.32 2.64 2 4 C2.99 4 3.98 4 5 4 C5.33 3.01 5.66 2.02 6 1 C6.66 1.66 7.32 2.32 8 3 C7.63318342 5.93453261 7.13562754 6.86437246 5 9 C3 8.9375 3 8.9375 1 8 C-0.3125 5.625 -0.3125 5.625 -1 3 C-0.67 2.01 -0.34 1.02 0 0 Z " fill="#0C0C0F" transform="translate(250,49)"/>
<path d="M0 0 C0.99 0.33 1.98 0.66 3 1 C2.95875 1.78375 2.9175 2.5675 2.875 3.375 C2.71271266 6.16116119 2.71271266 6.16116119 5 8 C5 8.99 5 9.98 5 11 C5.99 11.33 6.98 11.66 8 12 C7.67 13.32 7.34 14.64 7 16 C3.78509073 13.85672716 2.85390587 12.30478872 1 9 C0.34 8.01 -0.32 7.02 -1 6 C-0.625 2.8125 -0.625 2.8125 0 0 Z " fill="#8C94C4" transform="translate(33,42)"/>
<path d="M0 0 C0.66 0.33 1.32 0.66 2 1 C1.67 10.9 1.34 20.8 1 31 C1.66 31 2.32 31 3 31 C3 31.99 3 32.98 3 34 C1.68 34 0.36 34 -1 34 C-0.67 22.78 -0.34 11.56 0 0 Z " fill="#141417" transform="translate(237,35)"/>
<path d="M0 0 C2.46800047 1.15173355 4.04783565 2.04783565 6 4 C6.875 7.3125 6.875 7.3125 7 11 C5.0625 13.9375 5.0625 13.9375 3 16 C2.34 12.37 1.68 8.74 1 5 C1.66 5 2.32 5 3 5 C2.2575 4.319375 2.2575 4.319375 1.5 3.625 C0 2 0 2 0 0 Z " fill="#28272D" transform="translate(349,42)"/>
<path d="M0 0 C2.97 0.495 2.97 0.495 6 1 C6 1.99 6 2.98 6 4 C6.99 4.33 7.98 4.66 9 5 C9.33 6.65 9.66 8.3 10 10 C8.65686601 9.35330586 7.32608822 8.68096422 6 8 C5.113125 7.566875 4.22625 7.13375 3.3125 6.6875 C1 5 1 5 0.1875 2.3125 C0.0946875 1.1678125 0.0946875 1.1678125 0 0 Z " fill="#111114" transform="translate(343,40)"/>
<path d="M0 0 C0.99 0.66 1.98 1.32 3 2 C2.37017995 6.66066838 2.37017995 6.66066838 0.5 8.375 C-1.83370922 10.90318499 -1.68623866 13.67412977 -2 17 C-4.21332884 13.51483295 -4.04596003 11.36555639 -3.25 7.375 C-3.06953125 6.41335937 -2.8890625 5.45171875 -2.703125 4.4609375 C-2 2 -2 2 0 0 Z " fill="#111014" transform="translate(282,42)"/>
<path d="M0 0 C0.66 0.33 1.32 0.66 2 1 C2 1.99 2 2.98 2 4 C0.68 4.33 -0.64 4.66 -2 5 C-2 5.763125 -2 6.52625 -2 7.3125 C-2 9.20833333 -2 11.10416667 -2 13 C-3.32 12.01 -4.64 11.02 -6 10 C-5.62403791 7.21788056 -5.32681541 5.4120716 -3.5625 3.1875 C-2 2 -2 2 0 2 C0 1.34 0 0.68 0 0 Z " fill="#423FA2" transform="translate(41,38)"/>
<path d="M0 0 C0.60328125 0.54140625 1.2065625 1.0828125 1.828125 1.640625 C2.74851562 2.43726563 2.74851562 2.43726563 3.6875 3.25 C5.078125 4.890625 5.078125 4.890625 5.078125 7.890625 C4.35625 7.045 3.634375 6.199375 2.890625 5.328125 C0.3832572 2.63315454 0.3832572 2.63315454 -2.421875 2.828125 C-5.38544521 4.08764234 -7.51956923 5.76286846 -9.921875 7.890625 C-9.921875 6.570625 -9.921875 5.250625 -9.921875 3.890625 C-8.931875 3.560625 -7.941875 3.230625 -6.921875 2.890625 C-6.591875 1.900625 -6.261875 0.910625 -5.921875 -0.109375 C-3.39660494 -1.29646776 -2.44212885 -1.40968413 0 0 Z " fill="#9484CB" transform="translate(50.921875,30.109375)"/>
<path d="M0 0 C1.0828125 0.495 1.0828125 0.495 2.1875 1 C5.01697427 2.00603529 7.02895466 2.16977402 10 2 C10 2.66 10 3.32 10 4 C8.35 4 6.7 4 5 4 C5 4.99 5 5.98 5 7 C-0.53846154 6.50769231 -0.53846154 6.50769231 -2.875 3.9375 C-3.431875 2.9784375 -3.431875 2.9784375 -4 2 C-1.525 2.495 -1.525 2.495 1 3 C0.67 2.01 0.34 1.02 0 0 Z " fill="#2A2A2F" transform="translate(284,62)"/>
<path d="M0 0 C0.928125 0.33 1.85625 0.66 2.8125 1 C5.92029291 2.14967004 5.92029291 2.14967004 9 2 C8.34 3.65 7.68 5.3 7 7 C1.33846154 5.52307692 1.33846154 5.52307692 -0.375 2.875 C-0.58125 2.25625 -0.7875 1.6375 -1 1 C-0.67 0.67 -0.34 0.34 0 0 Z " fill="#5B71BC" transform="translate(41,52)"/>
<path d="M0 0 C3.0625 2 3.0625 2 5 4 C2 4 2 4 -1 3 C-5.17023918 2.8455467 -8.94146318 3.01611229 -13 4 C-13 3.34 -13 2.68 -13 2 C-8.70111906 -0.43700734 -4.85607698 -0.74310075 0 0 Z " fill="#15141E" transform="translate(208,38)"/>
<path d="M0 0 C0.66 0.33 1.32 0.66 2 1 C2 1.99 2 2.98 2 4 C2.66 4 3.32 4 4 4 C3.67 5.32 3.34 6.64 3 8 C0.525 7.01 0.525 7.01 -2 6 C-2 6.66 -2 7.32 -2 8 C-2.99 7.67 -3.98 7.34 -5 7 C-5 5 -5 5 -2.5 2.375 C-1.675 1.59125 -0.85 0.8075 0 0 Z " fill="#85AFC2" transform="translate(50,70)"/>
<path d="M0 0 C1.32 0.99 2.64 1.98 4 3 C2.75023244 6.65316671 2.32901247 7.78065836 -1 10 C-3.6875 10.125 -3.6875 10.125 -6 10 C-6 9.34 -6 8.68 -6 8 C-4.02 7.67 -2.04 7.34 0 7 C0 4.69 0 2.38 0 0 Z " fill="#151420" transform="translate(173,59)"/>
<path d="M0 0 C0 0.99 0 1.98 0 3 C-0.66 3 -1.32 3 -2 3 C-2.33 3.99 -2.66 4.98 -3 6 C-5.375 7.5625 -5.375 7.5625 -8 9 C-8.99 9.66 -9.98 10.32 -11 11 C-11.33 10.01 -11.66 9.02 -12 8 C-10.68 7.67 -9.36 7.34 -8 7 C-7.67 5.68 -7.34 4.36 -7 3 C-5 4 -5 4 -4 5 C-4 4.01 -4 3.02 -4 2 C-2.68 1.34 -1.36 0.68 0 0 Z " fill="#7B98B8" transform="translate(55,57)"/>
<path d="M0 0 C0.33 0.99 0.66 1.98 1 3 C1.66 3 2.32 3 3 3 C3.33 2.34 3.66 1.68 4 1 C4 3.31 4 5.62 4 8 C3.01 8.33 2.02 8.66 1 9 C0.34 9.66 -0.32 10.32 -1 11 C-1.33 9.02 -1.66 7.04 -2 5 C-1.67 5 -1.34 5 -1 5 C-0.67 3.35 -0.34 1.7 0 0 Z " fill="#0F0F13" transform="translate(302,50)"/>
<path d="M0 0 C3.11198065 1.49836105 6.0534615 3.19933758 9 5 C8.67 5.66 8.34 6.32 8 7 C5.9375 7.625 5.9375 7.625 4 8 C3.67 7.01 3.34 6.02 3 5 C1.35 5 -0.3 5 -2 5 C-1.34 3.35 -0.68 1.7 0 0 Z " fill="#3148A1" transform="translate(48,50)"/>
<path d="M0 0 C1.32 0.66 2.64 1.32 4 2 C3.67 2.33 3.34 2.66 3 3 C3.66 3.33 4.32 3.66 5 4 C3.68 4.33 2.36 4.66 1 5 C1 5.99 1 6.98 1 8 C-1.475 7.01 -1.475 7.01 -4 6 C-2.68 4.02 -1.36 2.04 0 0 Z M-4 7 C-3.67 7.99 -3.34 8.98 -3 10 C-3.99 9.67 -4.98 9.34 -6 9 C-5.34 9 -4.68 9 -4 9 C-4 8.34 -4 7.68 -4 7 Z " fill="#3E5B9E" transform="translate(50,54)"/>
<path d="M0 0 C2 0 2 0 4.125 1.875 C6 4 6 4 6 6 C6.66 6 7.32 6 8 6 C9.02104551 6.97850195 10.0206121 7.97980427 11 9 C11.66 9.33 12.32 9.66 13 10 C12.67 10.99 12.34 11.98 12 13 C10.2925002 11.71937515 8.62626404 10.38232443 7 9 C7 8.34 7 7.68 7 7 C6.01 6.67 5.02 6.34 4 6 C4 5.34 4 4.68 4 4 C2.68 3.67 1.36 3.34 0 3 C0 2.01 0 1.02 0 0 Z " fill="#D1DAF0" transform="translate(29,61)"/>
<path d="M0 0 C2.82692924 2.2157013 5.4635366 4.4635366 8 7 C8.99 7.66 9.98 8.32 11 9 C9.35 9.33 7.7 9.66 6 10 C4.99106869 8.90398831 3.99311775 7.79786082 3 6.6875 C2.1646875 5.76517578 2.1646875 5.76517578 1.3125 4.82421875 C0 3 0 3 0 0 Z " fill="#110F19" transform="translate(191,59)"/>
<path d="M0 0 C-2.64 2.64 -5.28 5.28 -8 8 C-9 6 -9 6 -8.25 2.9375 C-7.8375 1.968125 -7.425 0.99875 -7 0 C-4 -1 -4 -1 0 0 Z " fill="#8DA7CB" transform="translate(61,62)"/>
<path d="M0 0 C5.3592233 0.46601942 5.3592233 0.46601942 7.875 2.5625 C8.431875 3.2740625 8.431875 3.2740625 9 4 C8.67 4.99 8.34 5.98 8 7 C4.56404834 5.47291037 1.88087546 3.40072955 -1 1 C-0.67 0.67 -0.34 0.34 0 0 Z " fill="#6937A0" transform="translate(53,30)"/>
<path d="M0 0 C0.66 1.32 1.32 2.64 2 4 C0.38405168 6.04119788 -1.2856382 8.04072937 -3 10 C-3.66 10 -4.32 10 -5 10 C-5 9.34 -5 8.68 -5 8 C-4.34 8 -3.68 8 -3 8 C-3.33 6.02 -3.66 4.04 -4 2 C-3.01 2 -2.02 2 -1 2 C-0.67 1.34 -0.34 0.68 0 0 Z " fill="#252527" transform="translate(303,57)"/>
<path d="M0 0 C4.92307692 4.18461538 4.92307692 4.18461538 5.3125 8.3125 C5.209375 9.199375 5.10625 10.08625 5 11 C4.01 11 3.02 11 2 11 C1.855625 9.9275 1.71125 8.855 1.5625 7.75 C1.16250558 5.08337051 0.72408076 2.58600271 0 0 Z " fill="#22202A" transform="translate(111,48)"/>
<path d="M0 0 C3.68646141 1.45855647 5.16143971 3.30229045 7.25 6.625 C8.03117187 7.85089844 8.03117187 7.85089844 8.828125 9.1015625 C9.21484375 9.72804688 9.6015625 10.35453125 10 11 C7.12193585 9.69235781 4.99307704 8.28858403 2.75 6.0625 C2.22921875 5.55847656 1.7084375 5.05445313 1.171875 4.53515625 C0 3 0 3 0 0 Z " fill="#A9A7D2" transform="translate(48,44)"/>
<path d="M0 0 C5.37305699 -0.35233161 5.37305699 -0.35233161 8 0 C10 2 10 2 11 4 C10.278125 3.79375 9.55625 3.5875 8.8125 3.375 C5.55358415 2.94047789 3.91695496 3.58319331 1 5 C0.67 3.35 0.34 1.7 0 0 Z " fill="#A79BCF" transform="translate(42,38)"/>
<path d="M0 0 C1.41791408 0.45445964 2.83428046 0.91374944 4.25 1.375 C5.43335937 1.75785156 5.43335937 1.75785156 6.640625 2.1484375 C8.86627958 2.95173667 10.90931672 3.89711662 13 5 C12.67 5.33 12.34 5.66 12 6 C4.74349442 5.76208178 4.74349442 5.76208178 1.5 2.4375 C1.005 1.633125 0.51 0.82875 0 0 Z " fill="#151022" transform="translate(86,63)"/>
<path d="M0 0 C0.66 0.33 1.32 0.66 2 1 C1.67 1.66 1.34 2.32 1 3 C1.99 3.33 2.98 3.66 4 4 C2.35 5.32 0.7 6.64 -1 8 C-1.66 7.67 -2.32 7.34 -3 7 C-2.25 2.25 -2.25 2.25 0 0 Z " fill="#2B2B30" transform="translate(316,41)"/>
<path d="M0 0 C1.32 0.66 2.64 1.32 4 2 C1.16569547 5.2542015 -0.68607774 6.5206753 -5 7 C-5.33 6.01 -5.66 5.02 -6 4 C-4.68 3.34 -3.36 2.68 -2 2 C-2.33 2.66 -2.66 3.32 -3 4 C-2.34 4.33 -1.68 4.66 -1 5 C-0.67 3.35 -0.34 1.7 0 0 Z " fill="#486C96" transform="translate(63,61)"/>
<path d="M0 0 C0.33 1.65 0.66 3.3 1 5 C-3.08378077 5 -6.12315913 4.19287411 -10 3 C-10 2.67 -10 2.34 -10 2 C-8.7090864 1.66376204 -7.41723903 1.33110751 -6.125 1 C-5.40570313 0.814375 -4.68640625 0.62875 -3.9453125 0.4375 C-2 0 -2 0 0 0 Z " fill="#06050F" transform="translate(173,59)"/>
<path d="M0 0 C0.66 0 1.32 0 2 0 C2 4.29 2 8.58 2 13 C1.01 13.495 1.01 13.495 0 14 C-0.94238698 11.17283905 -1.13465647 9.36823877 -1.125 6.4375 C-1.12757812 5.65246094 -1.13015625 4.86742187 -1.1328125 4.05859375 C-1 2 -1 2 0 0 Z " fill="#1E1D27" transform="translate(118,47)"/>
<path d="M0 0 C2.96175123 0.61277612 4.38058783 1.25372522 7 3 C7 3.99 7 4.98 7 6 C5.35 6 3.7 6 2 6 C1.34 4.02 0.68 2.04 0 0 Z " fill="#2B469C" transform="translate(66,52)"/>
<path d="M0 0 C0 1.65 0 3.3 0 5 C-2.86177057 6.43088528 -4.93375773 5.59991697 -8 5 C-8 4.67 -8 4.34 -8 4 C-6.35 3.67 -4.7 3.34 -3 3 C-5.31 2.67 -7.62 2.34 -10 2 C-10 1.67 -10 1.34 -10 1 C-6.56484998 0.37542727 -3.50935186 0 0 0 Z " fill="#0A0A0C" transform="translate(297,40)"/>
<path d="M0 0 C3 1 3 1 4.1875 3.0625 C4.455625 3.701875 4.72375 4.34125 5 5 C4.01 5 3.02 5 2 5 C2.99 6.485 2.99 6.485 4 8 C3.01 8.66 2.02 9.32 1 10 C1 9.01 1 8.02 1 7 C0.34 6.67 -0.32 6.34 -1 6 C-0.67 4.02 -0.34 2.04 0 0 Z " fill="#1F1D25" transform="translate(333,59)"/>
<path d="M0 0 C1.34313399 0.64669414 2.67391178 1.31903578 4 2 C4.86625 2.433125 5.7325 2.86625 6.625 3.3125 C9.4059336 5.28842651 10.04254782 6.77947903 11 10 C5.75744463 7.4691112 3.12589106 4.95830996 0 0 Z " fill="#385EB7" transform="translate(17,54)"/>
<path d="M0 0 C3.68802044 1.22934015 4.72356973 2.93859378 7 6 C5.02 6.99 5.02 6.99 3 8 C2.67 6.68 2.34 5.36 2 4 C1.34 4 0.68 4 0 4 C0 2.68 0 1.36 0 0 Z " fill="#ADB2D6" transform="translate(61,50)"/>
<path d="M0 0 C0.99 0.33 1.98 0.66 3 1 C3 4.63 3 8.26 3 12 C2.01 11.67 1.02 11.34 0 11 C0 7.37 0 3.74 0 0 Z " fill="#16141F" transform="translate(138,46)"/>
<path d="M0 0 C1.32 0.66 2.64 1.32 4 2 C1.44931155 4.35448165 0.28982642 4.98327924 -3.25 5.1875 C-4.1575 5.125625 -5.065 5.06375 -6 5 C-6 4.34 -6 3.68 -6 3 C-4.02 2.67 -2.04 2.34 0 2 C0 1.34 0 0.68 0 0 Z " fill="#15131E" transform="translate(108,64)"/>
<path d="M0 0 C0.66 0.33 1.32 0.66 2 1 C2.33 1 2.66 1 3 1 C3.99 1 4.98 1 6 1 C5.4375 2.9375 5.4375 2.9375 4 5 C0.375 5.75 0.375 5.75 -3 6 C-2.01 4.02 -1.02 2.04 0 0 Z " fill="#556EA5" transform="translate(58,56)"/>
<path d="M0 0 C1.34173403 0.92543709 2.67320159 1.86577405 4 2.8125 C5.11375 3.59560547 5.11375 3.59560547 6.25 4.39453125 C7.11625 5.18923828 7.11625 5.18923828 8 6 C8 6.99 8 7.98 8 9 C6.68381002 8.21448343 5.37214772 7.4213763 4.0625 6.625 C3.33160156 6.18414062 2.60070312 5.74328125 1.84765625 5.2890625 C0 4 0 4 -1 2 C-0.67 1.34 -0.34 0.68 0 0 Z " fill="#A3B0E1" transform="translate(20,52)"/>
<path d="M0 0 C0.66 0.66 1.32 1.32 2 2 C1.34 2 0.68 2 0 2 C0.33 3.65 0.66 5.3 1 7 C-1.97 6.505 -1.97 6.505 -5 6 C-3.86695008 2.60085025 -2.87481525 1.94745549 0 0 Z " fill="#6735A2" transform="translate(38,24)"/>
<path d="M0 0 C3.82352106 1.5577308 6.29205593 3.91595258 9 7 C9 7.99 9 8.98 9 10 C5.13885044 8.53542603 3.92009119 6.57835176 2 3 C1.34 2.01 0.68 1.02 0 0 Z " fill="#A8AFD7" transform="translate(63,44)"/>
<path d="M0 0 C0.99 0 1.98 0 3 0 C3.36923077 5.53846154 3.36923077 5.53846154 1.5 7.875 C0.7575 8.431875 0.7575 8.431875 0 9 C-1.10844919 5.67465243 -0.84454356 3.37817425 0 0 Z " fill="#101014" transform="translate(259,42)"/>
<path d="M0 0 C0.66 0 1.32 0 2 0 C0.55369928 4.57995227 0.55369928 4.57995227 -1.8125 6.375 C-4.5280149 7.1508614 -6.30798849 6.74778098 -9 6 C-9 5.67 -9 5.34 -9 5 C-7.88625 4.731875 -6.7725 4.46375 -5.625 4.1875 C-1.78159049 3.34190981 -1.78159049 3.34190981 0 0 Z " fill="#3A393E" transform="translate(350,59)"/>
<path d="M0 0 C0.99 0 1.98 0 3 0 C2.34 2.97 1.68 5.94 1 9 C0.01 8.34 -0.98 7.68 -2 7 C-1.125 2.25 -1.125 2.25 0 0 Z " fill="#191823" transform="translate(158,47)"/>
<path d="M0 0 C0.66 0 1.32 0 2 0 C2.33 0.99 2.66 1.98 3 3 C2.34 3 1.68 3 1 3 C0.34 4.32 -0.32 5.64 -1 7 C-1.99 6.67 -2.98 6.34 -4 6 C-2.84826645 3.53199953 -1.95216435 1.95216435 0 0 Z " fill="#5441A3" transform="translate(26,36)"/>
<path d="M0 0 C4.79280002 0.80904103 6.13520113 3.25984591 9 7 C6 7 6 7 4.39453125 5.46875 C3.87246094 4.8190625 3.35039062 4.169375 2.8125 3.5 C2.28269531 2.8503125 1.75289062 2.200625 1.20703125 1.53125 C0.80871094 1.0259375 0.41039062 0.520625 0 0 Z " fill="#6877C3" transform="translate(13,53)"/>
<path d="M0 0 C2.25 0.125 2.25 0.125 5 1 C7.3125 4.0625 7.3125 4.0625 9 7 C8.67 7.66 8.34 8.32 8 9 C5.06799526 6.14723863 2.35684596 3.34920216 0 0 Z " fill="#474A9D" transform="translate(57,45)"/>
<path d="M0 0 C0.99 0.33 1.98 0.66 3 1 C3 2.65 3 4.3 3 6 C1.35 6.66 -0.3 7.32 -2 8 C-2.33 7.34 -2.66 6.68 -3 6 C-2.01 6 -1.02 6 0 6 C0 4.02 0 2.04 0 0 Z " fill="#100E16" transform="translate(173,41)"/>
<path d="M0 0 C1.9375 0.6875 1.9375 0.6875 4 2 C4.75 4.625 4.75 4.625 5 7 C4.01 7.33 3.02 7.66 2 8 C1.33333333 5.33333333 0.66666667 2.66666667 0 0 Z " fill="#201C29" transform="translate(104,52)"/>
<path d="M0 0 C2.88575819 0.39803561 3.82189513 0.79009069 5.75 3.0625 C6.1625 3.701875 6.575 4.34125 7 5 C6.01 5 5.02 5 4 5 C4 4.34 4 3.68 4 3 C3.01 3 2.02 3 1 3 C0.67 3.66 0.34 4.32 0 5 C-0.33 4.01 -0.66 3.02 -1 2 C-0.67 1.34 -0.34 0.68 0 0 Z " fill="#424199" transform="translate(70,45)"/>
<path d="M0 0 C1.32 0.33 2.64 0.66 4 1 C4 1.66 4 2.32 4 3 C1.64561267 4.42944945 0.51967567 5.08661261 -2.25 4.625 C-2.8275 4.41875 -3.405 4.2125 -4 4 C-2.68 3.34 -1.36 2.68 0 2 C0 1.34 0 0.68 0 0 Z " fill="#1B1925" transform="translate(209,64)"/>
<path d="M0 0 C0.99 0 1.98 0 3 0 C2.75 3.375 2.75 3.375 2 7 C0.02 7.99 0.02 7.99 -2 9 C-1.34 6.03 -0.68 3.06 0 0 Z " fill="#282731" transform="translate(210,52)"/>
<path d="M0 0 C2.475 0.495 2.475 0.495 5 1 C5.12375 1.598125 5.2475 2.19625 5.375 2.8125 C5.95475985 5.26231348 5.95475985 5.26231348 8 8 C6.0625 7.1875 6.0625 7.1875 4 6 C3.67 5.01 3.34 4.02 3 3 C2.34 3 1.68 3 1 3 C0.67 2.01 0.34 1.02 0 0 Z " fill="#B2AFD7" transform="translate(53,42)"/>
<path d="M0 0 C0.66 0 1.32 0 2 0 C2 2.31 2 4.62 2 7 C0.68 6.67 -0.64 6.34 -2 6 C-1.125 1.125 -1.125 1.125 0 0 Z " fill="#191725" transform="translate(95,37)"/>
<path d="M0 0 C1.17539996 0.92652701 2.34010577 1.86663387 3.5 2.8125 C4.1496875 3.33457031 4.799375 3.85664062 5.46875 4.39453125 C7 6 7 6 7 9 C6.2575 8.21625 5.515 7.4325 4.75 6.625 C2.45566682 4.43495469 0.87841142 3.17268614 -2 2 C-1.34 1.34 -0.68 0.68 0 0 Z " fill="#DEEBEB" transform="translate(49,29)"/>
<path d="M0 0 C0.33 0 0.66 0 1 0 C1.12117187 0.62648437 1.24234375 1.25296875 1.3671875 1.8984375 C1.53476563 2.71570312 1.70234375 3.53296875 1.875 4.375 C2.03742188 5.18710937 2.19984375 5.99921875 2.3671875 6.8359375 C2.86658932 9.18673923 2.86658932 9.18673923 5 11 C4.01 11.33 3.02 11.66 2 12 C0 10 0 10 -0.1953125 7.6171875 C-0.17210937 6.71226563 -0.14890625 5.80734375 -0.125 4.875 C-0.10695312 3.96492188 -0.08890625 3.05484375 -0.0703125 2.1171875 C-0.04710937 1.41851562 -0.02390625 0.71984375 0 0 Z " fill="#1F1E27" transform="translate(178,57)"/>
<path d="M0 0 C4.67692308 1.47692308 4.67692308 1.47692308 6.3125 4.125 C6.539375 4.74375 6.76625 5.3625 7 6 C4.69 5.34 2.38 4.68 0 4 C0 2.68 0 1.36 0 0 Z " fill="#413C9B" transform="translate(57,41)"/>
<path d="M0 0 C0 0.66 0 1.32 0 2 C-0.99 2.33 -1.98 2.66 -3 3 C-3.99 4.485 -3.99 4.485 -5 6 C-5.66 6 -6.32 6 -7 6 C-6.625 3.5625 -6.625 3.5625 -6 1 C-4 0 -4 0 0 0 Z " fill="#827DC2" transform="translate(45,42)"/>
<path d="M0 0 C0.99 0.99 1.98 1.98 3 3 C2.67 3.66 2.34 4.32 2 5 C1.34 4.67 0.68 4.34 0 4 C0 4.66 0 5.32 0 6 C-0.66 6 -1.32 6 -2 6 C-2.66 4.68 -3.32 3.36 -4 2 C-3.01 2 -2.02 2 -1 2 C-0.67 1.34 -0.34 0.68 0 0 Z " fill="#25252A" transform="translate(246,40)"/>
<path d="M0 0 C3.375 -0.125 3.375 -0.125 7 0 C7.66 0.66 8.32 1.32 9 2 C5.52674819 3.1577506 2.63932552 3.06866652 -1 3 C-0.67 2.01 -0.34 1.02 0 0 Z " fill="#35333C" transform="translate(97,29)"/>
<path d="M0 0 C0.86625 0.2784375 0.86625 0.2784375 1.75 0.5625 C4.20692525 1.04023546 5.64397534 0.75729364 8 0 C6.515 1.98 6.515 1.98 5 4 C3.0625 3.6875 3.0625 3.6875 1 3 C0.67 2.01 0.34 1.02 0 0 Z " fill="#262627" transform="translate(250,54)"/>
<path d="M0 0 C0.99 0 1.98 0 3 0 C3 0.66 3 1.32 3 2 C3.66 2.33 4.32 2.66 5 3 C5 3.66 5 4.32 5 5 C4.34 5 3.68 5 3 5 C3 4.34 3 3.68 3 3 C1.02 3.33 -0.96 3.66 -3 4 C-1.6875 2 -1.6875 2 0 0 Z " fill="#6B6FD2" transform="translate(15,47)"/>
<path d="M0 0 C0.66 0.33 1.32 0.66 2 1 C-1.625 6.75 -1.625 6.75 -5 9 C-3.7508258 5.54074837 -2.32472205 2.85306797 0 0 Z " fill="#3A3A3C" transform="translate(267,30)"/>
<path d="M0 0 C2.375 0.3125 2.375 0.3125 5 1 C5.66 1.99 6.32 2.98 7 4 C5.35 4 3.7 4 2 4 C1.34 2.68 0.68 1.36 0 0 Z " fill="#9E56C5" transform="translate(43,19)"/>
<path d="M0 0 C0.33 0 0.66 0 1 0 C2.42857143 8.57142857 2.42857143 8.57142857 0 12 C-1.28571429 3.42857143 -1.28571429 3.42857143 0 0 Z " fill="#2D2C35" transform="translate(150,48)"/>
<path d="M0 0 C2.62187494 1.04874998 3.79371361 1.64931313 5.25 4.125 C5.4975 4.74375 5.745 5.3625 6 6 C4 5 2 4 0 3 C0 2.01 0 1.02 0 0 Z " fill="#3C43BF" transform="translate(18,46)"/>
<path d="M0 0 C0.99 0 1.98 0 3 0 C2.67 1.65 2.34 3.3 2 5 C0.68 4.67 -0.64 4.34 -2 4 C-1.34 2.68 -0.68 1.36 0 0 Z " fill="#1D1D21" transform="translate(112,35)"/>
</svg>
